<svg xmlns="http://www.w3.org/2000/svg" xmlns:xlink="http://www.w3.org/1999/xlink" xmlns:inkscape="http://www.inkscape.org/namespaces/inkscape" version="1.1" width="424.8" height="218.83625" viewBox="0 0 424.8 218.83625">
<defs>
<clipPath id="clip_1">
<path transform="matrix(1,0,0,-1,0,218.83625)" d="M7.2 49.72H417.6V193.48H7.2Z"/>
</clipPath>
<clipPath id="clip_2">
<path transform="matrix(1,0,0,-1,0,218.83625)" d="M7.2 49.72H417.6V193.48H7.2Z"/>
</clipPath>
<clipPath id="clip_3">
<path transform="matrix(1,0,0,-1,0,218.83625)" d="M7.2 49.72H417.6V193.48H7.2Z"/>
</clipPath>
<clipPath id="clip_4">
<path transform="matrix(1,0,0,-1,0,218.83625)" d="M7.2 49.72H417.6V193.48H7.2Z"/>
</clipPath>
<clipPath id="clip_5">
<path transform="matrix(1,0,0,-1,0,218.83625)" d="M7.2 49.72H417.6V193.48H7.2Z"/>
</clipPath>
<clipPath id="clip_6">
<path transform="matrix(1,0,0,-1,0,218.83625)" d="M7.2 49.72H417.6V193.48H7.2Z"/>
</clipPath>
<clipPath id="clip_7">
<path transform="matrix(1,0,0,-1,0,218.83625)" d="M7.2 49.72H417.6V193.48H7.2Z"/>
</clipPath>
<clipPath id="clip_8">
<path transform="matrix(1,0,0,-1,0,218.83625)" d="M7.2 49.72H417.6V193.48H7.2Z"/>
</clipPath>
<clipPath id="clip_9">
<path transform="matrix(1,0,0,-1,0,218.83625)" d="M7.2 49.72H417.6V193.48H7.2Z"/>
</clipPath>
</defs>
<path transform="matrix(1,0,0,-1,0,218.83625)" d="M0 0H424.8V218.83625H0Z" fill="#ffffff"/>
<path transform="matrix(1,0,0,-1,0,218.83625)" d="M7.2 49.72H417.6V193.48H7.2Z" fill="#ffffff"/>
<g clip-path="url(#clip_1)">
<path transform="matrix(1,0,0,-1,0,218.83625)" d="M234.20604 54.726278C235.23317 54.726278 236.21836 55.13436 236.94466 55.86065 237.67095 56.586938 238.07903 57.572137 238.07903 58.599264 238.07903 59.62639 237.67095 60.611589 236.94466 61.337877 236.21836 62.064165 235.23317 62.472246 234.20604 62.472246 233.17891 62.472246 232.19371 62.064165 231.46743 61.337877 230.74114 60.611589 230.33306 59.62639 230.33306 58.599264 230.33306 57.572137 230.74114 56.586938 231.46743 55.86065 232.19371 55.13436 233.17891 54.726278 234.20604 54.726278Z" fill="#785ef0"/>
<path transform="matrix(1,0,0,-1,0,218.83625)" stroke-width="1" stroke-linecap="butt" stroke-linejoin="round" fill="none" stroke="#785ef0" d="M234.20604 54.726278C235.23317 54.726278 236.21836 55.13436 236.94466 55.86065 237.67095 56.586938 238.07903 57.572137 238.07903 58.599264 238.07903 59.62639 237.67095 60.611589 236.94466 61.337877 236.21836 62.064165 235.23317 62.472246 234.20604 62.472246 233.17891 62.472246 232.19371 62.064165 231.46743 61.337877 230.74114 60.611589 230.33306 59.62639 230.33306 58.599264 230.33306 57.572137 230.74114 56.586938 231.46743 55.86065 232.19371 55.13436 233.17891 54.726278 234.20604 54.726278Z"/>
</g>
<g clip-path="url(#clip_2)">
<path transform="matrix(1,0,0,-1,0,218.83625)" d="M387.13319 180.79763C388.16029 180.79763 389.14549 181.2057 389.87178 181.93199 390.59806 182.65828 391.00614 183.64348 391.00614 184.67061 391.00614 185.69774 390.59806 186.68294 389.87178 187.40923 389.14549 188.13552 388.16029 188.5436 387.13319 188.5436 386.10606 188.5436 385.12086 188.13552 384.39457 187.40923 383.66828 186.68294 383.2602 185.69774 383.2602 184.67061 383.2602 183.64348 383.66828 182.65828 384.39457 181.93199 385.12086 181.2057 386.10606 180.79763 387.13319 180.79763Z" fill="#fe6100"/>
<path transform="matrix(1,0,0,-1,0,218.83625)" stroke-width="1" stroke-linecap="butt" stroke-linejoin="round" fill="none" stroke="#fe6100" d="M387.13319 180.79763C388.16029 180.79763 389.14549 181.2057 389.87178 181.93199 390.59806 182.65828 391.00614 183.64348 391.00614 184.67061 391.00614 185.69774 390.59806 186.68294 389.87178 187.40923 389.14549 188.13552 388.16029 188.5436 387.13319 188.5436 386.10606 188.5436 385.12086 188.13552 384.39457 187.40923 383.66828 186.68294 383.2602 185.69774 383.2602 184.67061 383.2602 183.64348 383.66828 182.65828 384.39457 181.93199 385.12086 181.2057 386.10606 180.79763 387.13319 180.79763Z"/>
</g>
<g clip-path="url(#clip_3)">
<path transform="matrix(1,0,0,-1,0,218.83625)" d="M239.24462 52.924444C240.27175 52.924444 241.25693 53.332529 241.98323 54.058816 242.70952 54.785104 243.1176 55.7703 243.1176 56.79743 243.1176 57.824556 242.70952 58.809755 241.98323 59.53604 241.25693 60.26233 240.27175 60.67041 239.24462 60.67041 238.21749 60.67041 237.23229 60.26233 236.506 59.53604 235.77971 58.809755 235.37163 57.824556 235.37163 56.79743 235.37163 55.7703 235.77971 54.785104 236.506 54.058816 237.23229 53.332529 238.21749 52.924444 239.24462 52.924444Z" fill="#785ef0"/>
<path transform="matrix(1,0,0,-1,0,218.83625)" stroke-width="1" stroke-linecap="butt" stroke-linejoin="round" fill="none" stroke="#785ef0" d="M239.24462 52.924444C240.27175 52.924444 241.25693 53.332529 241.98323 54.058816 242.70952 54.785104 243.1176 55.7703 243.1176 56.79743 243.1176 57.824556 242.70952 58.809755 241.98323 59.53604 241.25693 60.26233 240.27175 60.67041 239.24462 60.67041 238.21749 60.67041 237.23229 60.26233 236.506 59.53604 235.77971 58.809755 235.37163 57.824556 235.37163 56.79743 235.37163 55.7703 235.77971 54.785104 236.506 54.058816 237.23229 53.332529 238.21749 52.924444 239.24462 52.924444Z"/>
</g>
<g clip-path="url(#clip_4)">
<path transform="matrix(1,0,0,-1,0,218.83625)" d="M389.35887 183.07247C390.386 183.07247 391.3712 183.48056 392.09748 184.20685 392.82377 184.93314 393.23185 185.91832 393.23185 186.94545 393.23185 187.97258 392.82377 188.95778 392.09748 189.68407 391.3712 190.41036 390.386 190.81844 389.35887 190.81844 388.33174 190.81844 387.34654 190.41036 386.62025 189.68407 385.89396 188.95778 385.48588 187.97258 385.48588 186.94545 385.48588 185.91832 385.89396 184.93314 386.62025 184.20685 387.34654 183.48056 388.33174 183.07247 389.35887 183.07247Z" fill="#fe6100"/>
<path transform="matrix(1,0,0,-1,0,218.83625)" stroke-width="1" stroke-linecap="butt" stroke-linejoin="round" fill="none" stroke="#fe6100" d="M389.35887 183.07247C390.386 183.07247 391.3712 183.48056 392.09748 184.20685 392.82377 184.93314 393.23185 185.91832 393.23185 186.94545 393.23185 187.97258 392.82377 188.95778 392.09748 189.68407 391.3712 190.41036 390.386 190.81844 389.35887 190.81844 388.33174 190.81844 387.34654 190.41036 386.62025 189.68407 385.89396 188.95778 385.48588 187.97258 385.48588 186.94545 385.48588 185.91832 385.89396 184.93314 386.62025 184.20685 387.34654 183.48056 388.33174 183.07247 389.35887 183.07247Z"/>
</g>
<g clip-path="url(#clip_5)">
<path transform="matrix(1,0,0,-1,0,218.83625)" d="M226.69667 52.38156C227.7238 52.38156 228.70899 52.789644 229.43529 53.515935 230.16158 54.24222 230.56966 55.227418 230.56966 56.254545 230.56966 57.281675 230.16158 58.26687 229.43529 58.993158 228.70899 59.719449 227.7238 60.12753 226.69667 60.12753 225.66954 60.12753 224.68434 59.719449 223.95806 58.993158 223.23177 58.26687 222.82369 57.281675 222.82369 56.254545 222.82369 55.227418 223.23177 54.24222 223.95806 53.515935 224.68434 52.789644 225.66954 52.38156 226.69667 52.38156Z" fill="#785ef0"/>
<path transform="matrix(1,0,0,-1,0,218.83625)" stroke-width="1" stroke-linecap="butt" stroke-linejoin="round" fill="none" stroke="#785ef0" d="M226.69667 52.38156C227.7238 52.38156 228.70899 52.789644 229.43529 53.515935 230.16158 54.24222 230.56966 55.227418 230.56966 56.254545 230.56966 57.281675 230.16158 58.26687 229.43529 58.993158 228.70899 59.719449 227.7238 60.12753 226.69667 60.12753 225.66954 60.12753 224.68434 59.719449 223.95806 58.993158 223.23177 58.26687 222.82369 57.281675 222.82369 56.254545 222.82369 55.227418 223.23177 54.24222 223.95806 53.515935 224.68434 52.789644 225.66954 52.38156 226.69667 52.38156Z"/>
</g>
<g clip-path="url(#clip_6)">
<path transform="matrix(1,0,0,-1,0,218.83625)" d="M398.94548 181.5187C399.9726 181.5187 400.9578 181.92679 401.68409 182.65308 402.41038 183.37937 402.81846 184.36457 402.81846 185.39168 402.81846 186.41881 402.41038 187.404 401.68409 188.1303 400.9578 188.85659 399.9726 189.26467 398.94548 189.26467 397.91835 189.26467 396.93315 188.85659 396.20686 188.1303 395.48057 187.404 395.07249 186.41881 395.07249 185.39168 395.07249 184.36457 395.48057 183.37937 396.20686 182.65308 396.93315 181.92679 397.91835 181.5187 398.94548 181.5187Z" fill="#fe6100"/>
<path transform="matrix(1,0,0,-1,0,218.83625)" stroke-width="1" stroke-linecap="butt" stroke-linejoin="round" fill="none" stroke="#fe6100" d="M398.94548 181.5187C399.9726 181.5187 400.9578 181.92679 401.68409 182.65308 402.41038 183.37937 402.81846 184.36457 402.81846 185.39168 402.81846 186.41881 402.41038 187.404 401.68409 188.1303 400.9578 188.85659 399.9726 189.26467 398.94548 189.26467 397.91835 189.26467 396.93315 188.85659 396.20686 188.1303 395.48057 187.404 395.07249 186.41881 395.07249 185.39168 395.07249 184.36457 395.48057 183.37937 396.20686 182.65308 396.93315 181.92679 397.91835 181.5187 398.94548 181.5187Z"/>
</g>
<g clip-path="url(#clip_7)">
<path transform="matrix(1,0,0,-1,0,218.83625)" d="M30.10641 131.46149C31.133538 131.46149 32.118734 131.86957 32.84502 132.59586 33.571313 133.32216 33.979394 134.30735 33.979394 135.33448 33.979394 136.3616 33.571313 137.3468 32.84502 138.07309 32.118734 138.79938 31.133538 139.20746 30.10641 139.20746 29.079283 139.20746 28.094086 138.79938 27.367798 138.07309 26.641509 137.3468 26.233426 136.3616 26.233426 135.33448 26.233426 134.30735 26.641509 133.32216 27.367798 132.59586 28.094086 131.86957 29.079283 131.46149 30.10641 131.46149Z" fill="#ffb000"/>
<path transform="matrix(1,0,0,-1,0,218.83625)" stroke-width="1" stroke-linecap="butt" stroke-linejoin="round" fill="none" stroke="#ffb000" d="M30.10641 131.46149C31.133538 131.46149 32.118734 131.86957 32.84502 132.59586 33.571313 133.32216 33.979394 134.30735 33.979394 135.33448 33.979394 136.3616 33.571313 137.3468 32.84502 138.07309 32.118734 138.79938 31.133538 139.20746 30.10641 139.20746 29.079283 139.20746 28.094086 138.79938 27.367798 138.07309 26.641509 137.3468 26.233426 136.3616 26.233426 135.33448 26.233426 134.30735 26.641509 133.32216 27.367798 132.59586 28.094086 131.86957 29.079283 131.46149 30.10641 131.46149Z"/>
</g>
<g clip-path="url(#clip_8)">
<path transform="matrix(1,0,0,-1,0,218.83625)" d="M38.016397 133.24753C39.043527 133.24753 40.02872 133.65561 40.75501 134.3819 41.4813 135.10819 41.88938 136.09339 41.88938 137.12052 41.88938 138.14763 41.4813 139.13283 40.75501 139.85912 40.02872 140.5854 39.043527 140.99349 38.016397 140.99349 36.98927 140.99349 36.004076 140.5854 35.277788 139.85912 34.551496 139.13283 34.143415 138.14763 34.143415 137.12052 34.143415 136.09339 34.551496 135.10819 35.277788 134.3819 36.004076 133.65561 36.98927 133.24753 38.016397 133.24753Z" fill="#ffb000"/>
<path transform="matrix(1,0,0,-1,0,218.83625)" stroke-width="1" stroke-linecap="butt" stroke-linejoin="round" fill="none" stroke="#ffb000" d="M38.016397 133.24753C39.043527 133.24753 40.02872 133.65561 40.75501 134.3819 41.4813 135.10819 41.88938 136.09339 41.88938 137.12052 41.88938 138.14763 41.4813 139.13283 40.75501 139.85912 40.02872 140.5854 39.043527 140.99349 38.016397 140.99349 36.98927 140.99349 36.004076 140.5854 35.277788 139.85912 34.551496 139.13283 34.143415 138.14763 34.143415 137.12052 34.143415 136.09339 34.551496 135.10819 35.277788 134.3819 36.004076 133.65561 36.98927 133.24753 38.016397 133.24753Z"/>
</g>
<g clip-path="url(#clip_9)">
<path transform="matrix(1,0,0,-1,0,218.83625)" d="M25.854546 133.70128C26.881674 133.70128 27.86687 134.10936 28.593159 134.83565 29.319447 135.56194 29.72753 136.54714 29.72753 137.57427 29.72753 138.6014 29.319447 139.5866 28.593159 140.31288 27.86687 141.03917 26.881674 141.44725 25.854546 141.44725 24.827418 141.44725 23.84222 141.03917 23.115933 140.31288 22.389645 139.5866 21.981562 138.6014 21.981562 137.57427 21.981562 136.54714 22.389645 135.56194 23.115933 134.83565 23.84222 134.10936 24.827418 133.70128 25.854546 133.70128Z" fill="#ffb000"/>
<path transform="matrix(1,0,0,-1,0,218.83625)" stroke-width="1" stroke-linecap="butt" stroke-linejoin="round" fill="none" stroke="#ffb000" d="M25.854546 133.70128C26.881674 133.70128 27.86687 134.10936 28.593159 134.83565 29.319447 135.56194 29.72753 136.54714 29.72753 137.57427 29.72753 138.6014 29.319447 139.5866 28.593159 140.31288 27.86687 141.03917 26.881674 141.44725 25.854546 141.44725 24.827418 141.44725 23.84222 141.03917 23.115933 140.31288 22.389645 139.5866 21.981562 138.6014 21.981562 137.57427 21.981562 136.54714 22.389645 135.56194 23.115933 134.83565 23.84222 134.10936 24.827418 133.70128 25.854546 133.70128Z"/>
</g>
<path transform="matrix(1,0,0,-1,0,218.83625)" stroke-width=".8" stroke-linecap="square" stroke-miterlimit="10" stroke-linejoin="miter" fill="none" stroke="#000000" d="M7.2 49.72V193.48"/>
<path transform="matrix(1,0,0,-1,0,218.83625)" stroke-width=".8" stroke-linecap="square" stroke-miterlimit="10" stroke-linejoin="miter" fill="none" stroke="#000000" d="M7.2 49.72H417.6"/>
<path transform="matrix(.016,0,0,-.016,30.376563,19.356247)" d="M247 52H338C432 52 505 79 556 133 606 187 632 264 632 365 632 466 606 543 556 597 505 650 432 677 338 677H247V52ZM55 0V52H148V677H55V729H345C471 729 569 697 639 633 709 569 744 479 744 365 744 250 708 160 638 96 568 32 470 0 345 0H55Z"/>
<path transform="matrix(.016,0,0,-.016,43.208566,19.356247)" d="M542 250H155V246C155 176 168 123 194 87 220 51 259 34 311 34 350 34 382 44 408 65 433 85 451 116 461 157H533C519 100 492 57 454 29 415 1 364-13 302-13 226-13 165 11 119 61 73 111 50 177 50 260 50 342 72 408 118 458 163 508 222 533 296 533 374 533 435 508 477 460 519 412 540 342 542 250ZM436 302C434 362 421 408 397 439 373 469 340 485 296 485 254 485 222 469 198 438 174 407 160 362 155 302H436Z"/>
<path transform="matrix(.016,0,0,-.016,52.680566,19.356247)" d="M205 52H290V0H29V52H115V708H29V760H205V52Z"/>
<path transform="matrix(.016,0,0,-.016,57.800565,19.356247)" d="M108 467H29V519H108V680H198V519H367V467H198V137C198 93 202 64 211 52 219 40 235 34 258 34 281 34 298 41 309 55 319 69 325 91 326 122H394C391 74 378 40 355 19 332-2 297-13 250-13 198-13 161-1 140 21 118 43 108 82 108 137V467Z"/>
<path transform="matrix(.016,0,0,-.016,64.23257,19.356247)" d="M398 163V273H282C237 273 204 263 182 244 160 224 150 195 150 156 150 120 161 91 183 70 205 48 235 38 273 38 310 38 340 49 363 72 386 95 398 125 398 163ZM488 324V52H568V0H398V56C378 32 355 14 329 3 303-7 272-13 238-13 180-13 134 2 100 32 66 62 50 104 50 156 50 209 69 250 108 280 146 310 201 325 272 325H398V361C398 400 386 430 362 452 338 474 304 485 261 485 225 485 197 476 176 460 154 444 141 420 136 388H90V493C121 506 151 516 181 523 210 529 239 533 267 533 339 533 393 515 431 479 469 443 488 392 488 324Z"/>
<path transform="matrix(.016,0,0,-.016,73.76856,19.356247)" d=""/>
<path transform="matrix(.016,0,0,-.016,78.85657,19.356247)" d="M200 264H468L334 611 200 264ZM-5 0V52H58L318 729H400L660 52H732V0H467V52H548L487 212H180L119 52H199V0H-5Z"/>
<path transform="matrix(.016,0,0,-.016,90.40857,19.356247)" d="M514 156C501 100 477 58 441 30 405 1 358-13 301-13 225-13 165 11 119 61 73 111 50 177 50 260 50 342 73 408 119 458 165 508 225 533 301 533 333 533 366 529 399 521 431 513 464 502 497 487V354H445C438 399 423 432 400 453 377 474 344 485 302 485 253 485 216 466 192 428 167 390 155 334 155 259 155 184 167 128 192 90 216 52 253 34 302 34 340 34 371 44 394 64 417 84 433 115 442 156H514Z"/>
<path transform="matrix(.016,0,0,-.016,99.36857,19.356247)" d="M108 467H29V519H108V680H198V519H367V467H198V137C198 93 202 64 211 52 219 40 235 34 258 34 281 34 298 41 309 55 319 69 325 91 326 122H394C391 74 378 40 355 19 332-2 297-13 250-13 198-13 161-1 140 21 118 43 108 82 108 137V467Z"/>
<path transform="matrix(.016,0,0,-.016,105.80057,19.356247)" d="M97 680C97 695 102 708 113 719 124 730 137 736 153 736 167 736 180 730 191 719 202 708 208 695 208 680 208 664 202 651 192 641 181 630 168 625 153 625 137 625 124 630 113 641 102 651 97 664 97 680ZM212 52H297V0H36V52H122V467H36V519H212V52Z"/>
<path transform="matrix(.016,0,0,-.016,110.92057,19.356247)" d="M247 0 56 467H-2V519H236V467H153L299 110 445 467H367V519H562V467H504L313 0H247Z"/>
<path transform="matrix(.016,0,0,-.016,119.96057,19.356247)" d="M398 163V273H282C237 273 204 263 182 244 160 224 150 195 150 156 150 120 161 91 183 70 205 48 235 38 273 38 310 38 340 49 363 72 386 95 398 125 398 163ZM488 324V52H568V0H398V56C378 32 355 14 329 3 303-7 272-13 238-13 180-13 134 2 100 32 66 62 50 104 50 156 50 209 69 250 108 280 146 310 201 325 272 325H398V361C398 400 386 430 362 452 338 474 304 485 261 485 225 485 197 476 176 460 154 444 141 420 136 388H90V493C121 506 151 516 181 523 210 529 239 533 267 533 339 533 393 515 431 479 469 443 488 392 488 324Z"/>
<path transform="matrix(.016,0,0,-.016,129.49657,19.356247)" d="M108 467H29V519H108V680H198V519H367V467H198V137C198 93 202 64 211 52 219 40 235 34 258 34 281 34 298 41 309 55 319 69 325 91 326 122H394C391 74 378 40 355 19 332-2 297-13 250-13 198-13 161-1 140 21 118 43 108 82 108 137V467Z"/>
<path transform="matrix(.016,0,0,-.016,135.92858,19.356247)" d="M97 680C97 695 102 708 113 719 124 730 137 736 153 736 167 736 180 730 191 719 202 708 208 695 208 680 208 664 202 651 192 641 181 630 168 625 153 625 137 625 124 630 113 641 102 651 97 664 97 680ZM212 52H297V0H36V52H122V467H36V519H212V52Z"/>
<path transform="matrix(.016,0,0,-.016,141.04857,19.356247)" d="M301 34C349 34 385 53 410 91 434 129 447 185 447 259 447 333 434 390 410 428 385 466 349 485 301 485 253 485 216 466 192 428 167 390 155 333 155 259 155 185 167 129 192 91 216 53 253 34 301 34ZM301-13C225-13 165 11 119 61 73 111 50 177 50 260 50 342 72 408 118 458 164 508 225 533 301 533 377 533 437 508 483 458 529 408 552 342 552 260 552 177 529 111 483 61 437 11 377-13 301-13Z"/>
<path transform="matrix(.016,0,0,-.016,150.68058,19.356247)" d="M41 0V52H122V467H36V519H212V427C228 461 250 488 276 506 302 524 333 533 369 533 426 533 468 516 495 484 522 451 536 400 536 330V52H616V0H368V52H446V302C446 365 438 408 422 432 406 456 379 468 340 468 298 468 266 452 244 422 222 391 212 347 212 289V52H290V0H41Z"/>
<path transform="matrix(.016,0,0,-.016,160.98458,19.356247)" d="M56 29V150H108C109 111 121 82 144 63 167 43 201 34 246 34 286 34 317 41 338 57 359 72 370 94 370 123 370 145 362 164 347 178 331 192 299 207 249 223L184 245C139 259 107 277 87 299 67 320 57 347 57 381 57 428 74 465 109 492 144 519 192 533 254 533 281 533 310 529 340 522 370 515 402 505 434 491V378H382C380 411 369 437 347 456 325 475 295 485 257 485 219 485 190 478 171 465 151 451 142 431 142 405 142 383 149 365 164 352 178 339 208 326 252 312L323 290C372 274 407 255 429 232 451 209 462 180 462 144 462 94 443 56 405 28 367 0 316-13 250-13 216-13 184-9 152-3 120 3 88 14 56 29Z"/>
<path transform="matrix(.016,0,0,-.016,169.19257,19.356247)" d=""/>
<path transform="matrix(.016,0,0,-.016,174.28057,19.356247)" d="M301 34C349 34 385 53 410 91 434 129 447 185 447 259 447 333 434 390 410 428 385 466 349 485 301 485 253 485 216 466 192 428 167 390 155 333 155 259 155 185 167 129 192 91 216 53 253 34 301 34ZM301-13C225-13 165 11 119 61 73 111 50 177 50 260 50 342 72 408 118 458 164 508 225 533 301 533 377 533 437 508 483 458 529 408 552 342 552 260 552 177 529 111 483 61 437 11 377-13 301-13Z"/>
<path transform="matrix(.016,0,0,-.016,183.91257,19.356247)" d="M41 0V52H122V467H36V519H212V427C228 461 250 488 276 506 302 524 333 533 369 533 426 533 468 516 495 484 522 451 536 400 536 330V52H616V0H368V52H446V302C446 365 438 408 422 432 406 456 379 468 340 468 298 468 266 452 244 422 222 391 212 347 212 289V52H290V0H41Z"/>
<path transform="matrix(.016,0,0,-.016,194.21657,19.356247)" d=""/>
<path transform="matrix(.016,0,0,-.016,199.30457,19.356247)" d="M205 285V234C205 171 217 123 241 91 265 58 299 42 345 42 391 42 425 60 449 97 473 133 485 188 485 260 485 332 473 386 449 422 425 458 391 477 345 477 299 477 265 460 241 427 217 394 205 347 205 285ZM115 467H29V519H205V438C222 470 244 494 272 510 299 525 333 533 373 533 437 533 489 507 529 457 569 407 590 341 590 260 590 178 569 112 529 62 489 12 437-13 373-13 333-13 299-5 272 9 244 24 222 48 205 81V-155H290V-207H29V-155H115V467Z"/>
<path transform="matrix(.016,0,0,-.016,209.54457,19.356247)" d="M478 520V390H426C424 416 417 435 405 448 392 460 373 467 349 467 305 467 271 451 247 421 223 390 212 346 212 289V52H316V0H41V52H122V468H36V519H212V427C229 463 251 489 279 507 307 524 341 533 381 533 395 533 411 531 427 529 443 527 460 524 478 520Z"/>
<path transform="matrix(.016,0,0,-.016,217.19257,19.356247)" d="M542 250H155V246C155 176 168 123 194 87 220 51 259 34 311 34 350 34 382 44 408 65 433 85 451 116 461 157H533C519 100 492 57 454 29 415 1 364-13 302-13 226-13 165 11 119 61 73 111 50 177 50 260 50 342 72 408 118 458 163 508 222 533 296 533 374 533 435 508 477 460 519 412 540 342 542 250ZM436 302C434 362 421 408 397 439 373 469 340 485 296 485 254 485 222 469 198 438 174 407 160 362 155 302H436Z"/>
<path transform="matrix(.016,0,0,-.016,226.66457,19.356247)" d="M430 637H383C382 661 375 680 362 693 348 705 329 712 303 712 269 712 246 702 232 684 218 666 212 633 212 586V519H357V467H212V52H327V0H36V52H122V467H36V519H122V584C122 642 137 685 167 715 197 745 241 760 300 760 322 760 343 758 365 754 387 750 408 744 430 736V637Z"/>
<path transform="matrix(.016,0,0,-.016,232.58457,19.356247)" d="M542 250H155V246C155 176 168 123 194 87 220 51 259 34 311 34 350 34 382 44 408 65 433 85 451 116 461 157H533C519 100 492 57 454 29 415 1 364-13 302-13 226-13 165 11 119 61 73 111 50 177 50 260 50 342 72 408 118 458 163 508 222 533 296 533 374 533 435 508 477 460 519 412 540 342 542 250ZM436 302C434 362 421 408 397 439 373 469 340 485 296 485 254 485 222 469 198 438 174 407 160 362 155 302H436Z"/>
<path transform="matrix(.016,0,0,-.016,242.05657,19.356247)" d="M478 520V390H426C424 416 417 435 405 448 392 460 373 467 349 467 305 467 271 451 247 421 223 390 212 346 212 289V52H316V0H41V52H122V468H36V519H212V427C229 463 251 489 279 507 307 524 341 533 381 533 395 533 411 531 427 529 443 527 460 524 478 520Z"/>
<path transform="matrix(.016,0,0,-.016,249.70456,19.356247)" d="M542 250H155V246C155 176 168 123 194 87 220 51 259 34 311 34 350 34 382 44 408 65 433 85 451 116 461 157H533C519 100 492 57 454 29 415 1 364-13 302-13 226-13 165 11 119 61 73 111 50 177 50 260 50 342 72 408 118 458 163 508 222 533 296 533 374 533 435 508 477 460 519 412 540 342 542 250ZM436 302C434 362 421 408 397 439 373 469 340 485 296 485 254 485 222 469 198 438 174 407 160 362 155 302H436Z"/>
<path transform="matrix(.016,0,0,-.016,259.17658,19.356247)" d="M41 0V52H122V467H36V519H212V427C228 461 250 488 276 506 302 524 333 533 369 533 426 533 468 516 495 484 522 451 536 400 536 330V52H616V0H368V52H446V302C446 365 438 408 422 432 406 456 379 468 340 468 298 468 266 452 244 422 222 391 212 347 212 289V52H290V0H41Z"/>
<path transform="matrix(.016,0,0,-.016,269.48057,19.356247)" d="M514 156C501 100 477 58 441 30 405 1 358-13 301-13 225-13 165 11 119 61 73 111 50 177 50 260 50 342 73 408 119 458 165 508 225 533 301 533 333 533 366 529 399 521 431 513 464 502 497 487V354H445C438 399 423 432 400 453 377 474 344 485 302 485 253 485 216 466 192 428 167 390 155 334 155 259 155 184 167 128 192 90 216 52 253 34 302 34 340 34 371 44 394 64 417 84 433 115 442 156H514Z"/>
<path transform="matrix(.016,0,0,-.016,278.44059,19.356247)" d="M542 250H155V246C155 176 168 123 194 87 220 51 259 34 311 34 350 34 382 44 408 65 433 85 451 116 461 157H533C519 100 492 57 454 29 415 1 364-13 302-13 226-13 165 11 119 61 73 111 50 177 50 260 50 342 72 408 118 458 163 508 222 533 296 533 374 533 435 508 477 460 519 412 540 342 542 250ZM436 302C434 362 421 408 397 439 373 469 340 485 296 485 254 485 222 469 198 438 174 407 160 362 155 302H436Z"/>
<path transform="matrix(.016,0,0,-.016,287.91258,19.356247)" d=""/>
<path transform="matrix(.016,0,0,-.016,293.00059,19.356247)" d="M301 34C349 34 385 53 410 91 434 129 447 185 447 259 447 333 434 390 410 428 385 466 349 485 301 485 253 485 216 466 192 428 167 390 155 333 155 259 155 185 167 129 192 91 216 53 253 34 301 34ZM301-13C225-13 165 11 119 61 73 111 50 177 50 260 50 342 72 408 118 458 164 508 225 533 301 533 377 533 437 508 483 458 529 408 552 342 552 260 552 177 529 111 483 61 437 11 377-13 301-13Z"/>
<path transform="matrix(.016,0,0,-.016,302.63258,19.356247)" d="M205 285V234C205 171 217 123 241 91 265 58 299 42 345 42 391 42 425 60 449 97 473 133 485 188 485 260 485 332 473 386 449 422 425 458 391 477 345 477 299 477 265 460 241 427 217 394 205 347 205 285ZM115 467H29V519H205V438C222 470 244 494 272 510 299 525 333 533 373 533 437 533 489 507 529 457 569 407 590 341 590 260 590 178 569 112 529 62 489 12 437-13 373-13 333-13 299-5 272 9 244 24 222 48 205 81V-155H290V-207H29V-155H115V467Z"/>
<path transform="matrix(.016,0,0,-.016,312.87257,19.356247)" d="M108 467H29V519H108V680H198V519H367V467H198V137C198 93 202 64 211 52 219 40 235 34 258 34 281 34 298 41 309 55 319 69 325 91 326 122H394C391 74 378 40 355 19 332-2 297-13 250-13 198-13 161-1 140 21 118 43 108 82 108 137V467Z"/>
<path transform="matrix(.016,0,0,-.016,319.30458,19.356247)" d="M97 680C97 695 102 708 113 719 124 730 137 736 153 736 167 736 180 730 191 719 202 708 208 695 208 680 208 664 202 651 192 641 181 630 168 625 153 625 137 625 124 630 113 641 102 651 97 664 97 680ZM212 52H297V0H36V52H122V467H36V519H212V52Z"/>
<path transform="matrix(.016,0,0,-.016,324.42457,19.356247)" d="M518 418C535 456 557 484 584 504 611 523 642 533 678 533 732 533 773 516 800 482 826 448 840 398 840 330V52H921V0H672V52H750V320C750 372 742 410 726 433 710 455 685 467 649 467 609 467 578 451 557 421 536 391 526 347 526 289V52H604V0H358V52H436V323C436 375 428 412 412 434 396 456 371 467 335 467 295 467 264 451 243 421 222 391 212 347 212 289V52H290V0H41V52H122V468H36V519H212V427C228 461 249 488 275 506 301 524 330 533 363 533 403 533 436 523 463 503 490 483 508 454 518 418Z"/>
<path transform="matrix(.016,0,0,-.016,339.59257,19.356247)" d="M97 680C97 695 102 708 113 719 124 730 137 736 153 736 167 736 180 730 191 719 202 708 208 695 208 680 208 664 202 651 192 641 181 630 168 625 153 625 137 625 124 630 113 641 102 651 97 664 97 680ZM212 52H297V0H36V52H122V467H36V519H212V52Z"/>
<path transform="matrix(.016,0,0,-.016,344.71257,19.356247)" d="M40 0V42L365 467H108V377H56V519H481V477L156 52H438V146H490V0H40Z"/>
<path transform="matrix(.016,0,0,-.016,353.14457,19.356247)" d="M398 163V273H282C237 273 204 263 182 244 160 224 150 195 150 156 150 120 161 91 183 70 205 48 235 38 273 38 310 38 340 49 363 72 386 95 398 125 398 163ZM488 324V52H568V0H398V56C378 32 355 14 329 3 303-7 272-13 238-13 180-13 134 2 100 32 66 62 50 104 50 156 50 209 69 250 108 280 146 310 201 325 272 325H398V361C398 400 386 430 362 452 338 474 304 485 261 485 225 485 197 476 176 460 154 444 141 420 136 388H90V493C121 506 151 516 181 523 210 529 239 533 267 533 339 533 393 515 431 479 469 443 488 392 488 324Z"/>
<path transform="matrix(.016,0,0,-.016,362.68058,19.356247)" d="M108 467H29V519H108V680H198V519H367V467H198V137C198 93 202 64 211 52 219 40 235 34 258 34 281 34 298 41 309 55 319 69 325 91 326 122H394C391 74 378 40 355 19 332-2 297-13 250-13 198-13 161-1 140 21 118 43 108 82 108 137V467Z"/>
<path transform="matrix(.016,0,0,-.016,369.11259,19.356247)" d="M97 680C97 695 102 708 113 719 124 730 137 736 153 736 167 736 180 730 191 719 202 708 208 695 208 680 208 664 202 651 192 641 181 630 168 625 153 625 137 625 124 630 113 641 102 651 97 664 97 680ZM212 52H297V0H36V52H122V467H36V519H212V52Z"/>
<path transform="matrix(.016,0,0,-.016,374.23258,19.356247)" d="M301 34C349 34 385 53 410 91 434 129 447 185 447 259 447 333 434 390 410 428 385 466 349 485 301 485 253 485 216 466 192 428 167 390 155 333 155 259 155 185 167 129 192 91 216 53 253 34 301 34ZM301-13C225-13 165 11 119 61 73 111 50 177 50 260 50 342 72 408 118 458 164 508 225 533 301 533 377 533 437 508 483 458 529 408 552 342 552 260 552 177 529 111 483 61 437 11 377-13 301-13Z"/>
<path transform="matrix(.016,0,0,-.016,383.86457,19.356247)" d="M41 0V52H122V467H36V519H212V427C228 461 250 488 276 506 302 524 333 533 369 533 426 533 468 516 495 484 522 451 536 400 536 330V52H616V0H368V52H446V302C446 365 438 408 422 432 406 456 379 468 340 468 298 468 266 452 244 422 222 391 212 347 212 289V52H290V0H41Z"/>
<g>
<path transform="matrix(1,0,0,-1,0,218.83625)" d="M71.50938 7.2H353.29063C354.62397 7.2 355.29063 7.866667 355.29063 9.2V37.54375C355.29063 38.877084 354.62397 39.54375 353.29063 39.54375H71.50938C70.17604 39.54375 69.50938 38.877084 69.50938 37.54375V9.2C69.50938 7.866667 70.17604 7.2 71.50938 7.2Z" fill="#ffffff" fill-opacity=".8"/>
<path transform="matrix(1,0,0,-1,0,218.83625)" stroke-width="1" stroke-linecap="butt" stroke-miterlimit="10" stroke-linejoin="miter" fill="none" stroke="#cccccc" stroke-opacity=".8" d="M71.50938 7.2H353.29063C354.62397 7.2 355.29063 7.866667 355.29063 9.2V37.54375C355.29063 38.877084 354.62397 39.54375 353.29063 39.54375H71.50938C70.17604 39.54375 69.50938 38.877084 69.50938 37.54375V9.2C69.50938 7.866667 70.17604 7.2 71.50938 7.2Z"/>
</g>
<path transform="matrix(.010000001,0,0,-.010000001,132.37656,190.88625)" d="M197 648V374H321C367 374 402 385 427 409 452 433 465 467 465 511 465 555 452 588 427 612 402 636 367 648 321 648H197ZM98 729H321C402 729 464 710 506 673 548 636 569 582 569 511 569 439 548 384 506 348 464 311 402 293 321 293H197V0H98V729Z"/>
<path transform="matrix(.010000001,0,0,-.010000001,138.23468,190.88625)" d="M411 463C401 469 390 473 378 476 366 478 353 480 339 480 288 480 249 463 222 430 194 397 181 350 181 288V0H91V547H181V462C199 495 224 520 254 536 284 552 321 560 365 560 371 560 378 559 386 559 393 558 401 557 411 555V463Z"/>
<path transform="matrix(.010000001,0,0,-.010000001,142.12593,190.88625)" d="M562 296V252H149C153 190 171 142 205 110 238 78 284 62 344 62 378 62 412 66 444 74 476 82 509 95 541 113V28C509 14 476 3 442-3 408-9 373-13 339-13 251-13 182 12 131 62 80 112 55 181 55 268 55 357 79 428 127 481 175 533 241 560 323 560 397 560 455 536 498 489 540 441 562 377 562 296ZM472 322C471 371 457 410 431 440 404 469 368 484 324 484 274 484 234 469 204 441 174 413 156 373 152 322H472Z"/>
<path transform="matrix(.010000001,0,0,-.010000001,148.27594,190.88625)" d="M371 760V685H285C253 685 230 678 218 665 205 652 199 629 199 595V547H347V477H199V0H109V477H23V547H109V585C109 645 123 690 151 718 179 746 224 760 286 760H371Z"/>
<path transform="matrix(.010000001,0,0,-.010000001,151.79593,190.88625)" d="M562 296V252H149C153 190 171 142 205 110 238 78 284 62 344 62 378 62 412 66 444 74 476 82 509 95 541 113V28C509 14 476 3 442-3 408-9 373-13 339-13 251-13 182 12 131 62 80 112 55 181 55 268 55 357 79 428 127 481 175 533 241 560 323 560 397 560 455 536 498 489 540 441 562 377 562 296ZM472 322C471 371 457 410 431 440 404 469 368 484 324 484 274 484 234 469 204 441 174 413 156 373 152 322H472Z"/>
<path transform="matrix(.010000001,0,0,-.010000001,157.94594,190.88625)" d="M411 463C401 469 390 473 378 476 366 478 353 480 339 480 288 480 249 463 222 430 194 397 181 350 181 288V0H91V547H181V462C199 495 224 520 254 536 284 552 321 560 365 560 371 560 378 559 386 559 393 558 401 557 411 555V463Z"/>
<path transform="matrix(.010000001,0,0,-.010000001,161.83719,190.88625)" d="M562 296V252H149C153 190 171 142 205 110 238 78 284 62 344 62 378 62 412 66 444 74 476 82 509 95 541 113V28C509 14 476 3 442-3 408-9 373-13 339-13 251-13 182 12 131 62 80 112 55 181 55 268 55 357 79 428 127 481 175 533 241 560 323 560 397 560 455 536 498 489 540 441 562 377 562 296ZM472 322C471 371 457 410 431 440 404 469 368 484 324 484 274 484 234 469 204 441 174 413 156 373 152 322H472Z"/>
<path transform="matrix(.010000001,0,0,-.010000001,167.98719,190.88625)" d="M549 330V0H459V327C459 379 448 417 428 443 408 469 378 482 338 482 289 482 251 466 223 435 195 404 181 362 181 309V0H91V547H181V462C202 494 227 519 257 535 286 551 320 560 358 560 420 560 468 540 500 501 532 462 549 405 549 330Z"/>
<path transform="matrix(.010000001,0,0,-.010000001,174.32718,190.88625)" d="M488 526V442C462 456 437 466 411 473 385 480 360 484 334 484 276 484 230 465 198 428 166 391 150 339 150 273 150 206 166 154 198 117 230 80 276 62 334 62 360 62 385 65 411 72 437 79 462 90 488 104V21C462 9 436 0 410-5 383-10 354-13 324-13 242-13 176 12 128 64 79 115 55 185 55 273 55 362 79 432 128 483 177 534 244 560 330 560 358 560 385 557 411 551 437 545 463 537 488 526Z"/>
<path transform="matrix(.010000001,0,0,-.010000001,179.82718,190.88625)" d="M562 296V252H149C153 190 171 142 205 110 238 78 284 62 344 62 378 62 412 66 444 74 476 82 509 95 541 113V28C509 14 476 3 442-3 408-9 373-13 339-13 251-13 182 12 131 62 80 112 55 181 55 268 55 357 79 428 127 481 175 533 241 560 323 560 397 560 455 536 498 489 540 441 562 377 562 296ZM472 322C471 371 457 410 431 440 404 469 368 484 324 484 274 484 234 469 204 441 174 413 156 373 152 322H472Z"/>
<path transform="matrix(.010000001,0,0,-.010000001,185.97719,190.88625)" d=""/>
<path transform="matrix(.010000001,0,0,-.010000001,189.15718,190.88625)" d="M306 484C258 484 220 465 192 427 164 389 150 338 150 273 150 207 163 156 191 118 219 80 257 62 306 62 354 62 392 80 420 118 448 156 462 207 462 273 462 337 448 389 420 427 392 465 354 484 306 484ZM306 560C384 560 445 534 490 484 534 433 557 363 557 273 557 183 534 113 490 63 445 12 384-13 306-13 227-13 165 12 121 63 77 113 55 183 55 273 55 363 77 433 121 484 165 534 227 560 306 560Z"/>
<path transform="matrix(.010000001,0,0,-.010000001,195.27719,190.88625)" d="M181 82V-207H91V547H181V464C199 496 223 520 252 536 281 552 316 560 356 560 422 560 476 533 518 481 559 428 580 359 580 273 580 187 559 117 518 65 476 13 422-13 356-13 316-13 281-5 252 10 223 25 199 49 181 82ZM487 273C487 339 473 390 446 428 418 466 381 485 334 485 286 485 249 466 222 428 194 390 181 339 181 273 181 207 194 155 222 117 249 79 286 61 334 61 381 61 418 79 446 117 473 155 487 207 487 273Z"/>
<path transform="matrix(.010000001,0,0,-.010000001,201.62718,190.88625)" d="M183 702V547H368V477H183V180C183 135 189 106 201 94 213 81 238 75 276 75H368V0H276C206 0 158 13 132 39 106 65 93 112 93 180V477H27V547H93V702H183Z"/>
<path transform="matrix(.010000001,0,0,-.010000001,205.54718,190.88625)" d="M94 547H184V0H94V547ZM94 760H184V646H94V760Z"/>
<path transform="matrix(.010000001,0,0,-.010000001,208.32718,190.88625)" d="M520 442C542 482 569 511 600 531 631 550 668 560 711 560 767 560 811 540 842 500 873 460 889 403 889 330V0H799V327C799 379 789 418 771 444 752 469 724 482 686 482 639 482 602 466 575 435 548 404 535 362 535 309V0H445V327C445 379 435 418 417 444 398 469 369 482 331 482 285 482 248 466 221 435 194 404 181 362 181 309V0H91V547H181V462C201 495 226 520 255 536 283 552 317 560 357 560 397 560 430 550 458 530 486 510 506 480 520 442Z"/>
<path transform="matrix(.010000001,0,0,-.010000001,218.06717,190.88625)" d="M94 547H184V0H94V547ZM94 760H184V646H94V760Z"/>
<path transform="matrix(.010000001,0,0,-.010000001,220.84717,190.88625)" d="M55 547H482V465L144 72H482V0H43V82L381 475H55V547Z"/>
<path transform="matrix(.010000001,0,0,-.010000001,226.09717,190.88625)" d="M343 275C270 275 220 266 192 250 164 233 150 205 150 165 150 133 160 107 181 89 202 70 231 61 267 61 317 61 357 78 387 114 417 149 432 196 432 255V275H343ZM522 312V0H432V83C411 49 385 25 355 10 325-5 287-13 243-13 187-13 142 2 109 33 76 64 60 106 60 159 60 220 80 266 122 298 163 329 224 345 306 345H432V354C432 395 418 427 391 450 364 472 326 484 277 484 245 484 215 480 185 472 155 464 127 453 100 439V522C132 534 164 544 195 550 226 556 256 560 286 560 365 560 424 539 463 498 502 457 522 395 522 312Z"/>
<path transform="matrix(.010000001,0,0,-.010000001,232.22718,190.88625)" d="M183 702V547H368V477H183V180C183 135 189 106 201 94 213 81 238 75 276 75H368V0H276C206 0 158 13 132 39 106 65 93 112 93 180V477H27V547H93V702H183Z"/>
<path transform="matrix(.010000001,0,0,-.010000001,236.14717,190.88625)" d="M94 547H184V0H94V547ZM94 760H184V646H94V760Z"/>
<path transform="matrix(.010000001,0,0,-.010000001,238.92717,190.88625)" d="M306 484C258 484 220 465 192 427 164 389 150 338 150 273 150 207 163 156 191 118 219 80 257 62 306 62 354 62 392 80 420 118 448 156 462 207 462 273 462 337 448 389 420 427 392 465 354 484 306 484ZM306 560C384 560 445 534 490 484 534 433 557 363 557 273 557 183 534 113 490 63 445 12 384-13 306-13 227-13 165 12 121 63 77 113 55 183 55 273 55 363 77 433 121 484 165 534 227 560 306 560Z"/>
<path transform="matrix(.010000001,0,0,-.010000001,245.04718,190.88625)" d="M549 330V0H459V327C459 379 448 417 428 443 408 469 378 482 338 482 289 482 251 466 223 435 195 404 181 362 181 309V0H91V547H181V462C202 494 227 519 257 535 286 551 320 560 358 560 420 560 468 540 500 501 532 462 549 405 549 330Z"/>
<path transform="matrix(.010000001,0,0,-.010000001,251.38718,190.88625)" d=""/>
<path transform="matrix(.010000001,0,0,-.010000001,254.56717,190.88625)" d="M454 464V760H544V0H454V82C435 49 411 25 382 10 353-5 319-13 279-13 213-13 159 13 117 65 75 117 55 187 55 273 55 359 75 428 117 481 159 533 213 560 279 560 319 560 353 552 382 536 411 520 435 496 454 464ZM148 273C148 207 161 155 188 117 215 79 252 61 300 61 348 61 385 79 413 117 440 155 454 207 454 273 454 339 440 390 413 428 385 466 348 485 300 485 252 485 215 466 188 428 161 390 148 339 148 273Z"/>
<path transform="matrix(.010000001,0,0,-.010000001,260.91719,190.88625)" d="M343 275C270 275 220 266 192 250 164 233 150 205 150 165 150 133 160 107 181 89 202 70 231 61 267 61 317 61 357 78 387 114 417 149 432 196 432 255V275H343ZM522 312V0H432V83C411 49 385 25 355 10 325-5 287-13 243-13 187-13 142 2 109 33 76 64 60 106 60 159 60 220 80 266 122 298 163 329 224 345 306 345H432V354C432 395 418 427 391 450 364 472 326 484 277 484 245 484 215 480 185 472 155 464 127 453 100 439V522C132 534 164 544 195 550 226 556 256 560 286 560 365 560 424 539 463 498 502 457 522 395 522 312Z"/>
<path transform="matrix(.010000001,0,0,-.010000001,267.04719,190.88625)" d="M183 702V547H368V477H183V180C183 135 189 106 201 94 213 81 238 75 276 75H368V0H276C206 0 158 13 132 39 106 65 93 112 93 180V477H27V547H93V702H183Z"/>
<path transform="matrix(.010000001,0,0,-.010000001,270.96717,190.88625)" d="M343 275C270 275 220 266 192 250 164 233 150 205 150 165 150 133 160 107 181 89 202 70 231 61 267 61 317 61 357 78 387 114 417 149 432 196 432 255V275H343ZM522 312V0H432V83C411 49 385 25 355 10 325-5 287-13 243-13 187-13 142 2 109 33 76 64 60 106 60 159 60 220 80 266 122 298 163 329 224 345 306 345H432V354C432 395 418 427 391 450 364 472 326 484 277 484 245 484 215 480 185 472 155 464 127 453 100 439V522C132 534 164 544 195 550 226 556 256 560 286 560 365 560 424 539 463 498 502 457 522 395 522 312Z"/>
<path transform="matrix(.010000001,0,0,-.010000001,277.09718,190.88625)" d="M443 531V446C417 458 391 468 364 475 336 481 308 485 279 485 234 485 200 478 178 464 156 450 145 430 145 403 145 382 153 366 169 354 185 342 217 330 265 320L296 313C360 299 405 279 432 255 458 230 472 195 472 151 472 100 452 60 412 31 372 1 316-13 246-13 216-13 186-10 154-5 122 0 89 8 54 20V113C87 95 120 82 152 74 184 65 216 61 248 61 290 61 323 68 346 82 368 96 380 117 380 144 380 168 371 187 355 200 339 213 303 226 247 238L216 245C160 257 119 275 95 299 70 323 58 356 58 399 58 450 76 490 112 518 148 546 200 560 268 560 301 560 332 557 362 552 391 547 418 540 443 531Z"/>
<path transform="matrix(.010000001,0,0,-.010000001,282.3072,190.88625)" d="M562 296V252H149C153 190 171 142 205 110 238 78 284 62 344 62 378 62 412 66 444 74 476 82 509 95 541 113V28C509 14 476 3 442-3 408-9 373-13 339-13 251-13 182 12 131 62 80 112 55 181 55 268 55 357 79 428 127 481 175 533 241 560 323 560 397 560 455 536 498 489 540 441 562 377 562 296ZM472 322C471 371 457 410 431 440 404 469 368 484 324 484 274 484 234 469 204 441 174 413 156 373 152 322H472Z"/>
<path transform="matrix(.010000001,0,0,-.010000001,288.45719,190.88625)" d="M183 702V547H368V477H183V180C183 135 189 106 201 94 213 81 238 75 276 75H368V0H276C206 0 158 13 132 39 106 65 93 112 93 180V477H27V547H93V702H183Z"/>
<path transform="matrix(1,0,0,-1,0,218.83625)" stroke-width="1.5" stroke-linecap="square" stroke-linejoin="round" fill="none" stroke="#ffffff" d="M73.50938 16.778126H83.50938 93.50938"/>
<path transform="matrix(1,0,0,-1,0,218.83625)" d="M83.50938 11.778125C84.83539 11.778125 86.10728 12.304957 87.04491 13.242591 87.982547 14.180226 88.50938 15.45211 88.50938 16.778126 88.50938 18.104142 87.982547 19.376025 87.04491 20.31366 86.10728 21.251294 84.83539 21.778126 83.50938 21.778126 82.18336 21.778126 80.911479 21.251294 79.97384 20.31366 79.03621 19.376025 78.50938 18.104142 78.50938 16.778126 78.50938 15.45211 79.03621 14.180226 79.97384 13.242591 80.911479 12.304957 82.18336 11.778125 83.50938 11.778125Z" fill="#fe6100"/>
<path transform="matrix(1,0,0,-1,0,218.83625)" stroke-width="1" stroke-linecap="butt" stroke-linejoin="round" fill="none" stroke="#ffffff" d="M83.50938 11.778125C84.83539 11.778125 86.10728 12.304957 87.04491 13.242591 87.982547 14.180226 88.50938 15.45211 88.50938 16.778126 88.50938 18.104142 87.982547 19.376025 87.04491 20.31366 86.10728 21.251294 84.83539 21.778126 83.50938 21.778126 82.18336 21.778126 80.911479 21.251294 79.97384 20.31366 79.03621 19.376025 78.50938 18.104142 78.50938 16.778126 78.50938 15.45211 79.03621 14.180226 79.97384 13.242591 80.911479 12.304957 82.18336 11.778125 83.50938 11.778125Z"/>
<path transform="matrix(.010000001,0,0,-.010000001,101.50938,205.55812)" d="M87 729H186V286C186 208 200 151 228 117 256 83 302 66 366 66 429 66 475 83 503 117 531 151 546 208 546 286V729H645V274C645 178 621 107 574 59 527 11 458-13 366-13 274-13 204 11 157 59 110 107 87 178 87 274V729Z"/>
<path transform="matrix(.010000001,0,0,-.010000001,108.82938,205.55812)" d="M94 760H184V0H94V760Z"/>
<path transform="matrix(.010000001,0,0,-.010000001,111.609378,205.55812)" d="M183 702V547H368V477H183V180C183 135 189 106 201 94 213 81 238 75 276 75H368V0H276C206 0 158 13 132 39 106 65 93 112 93 180V477H27V547H93V702H183Z"/>
<path transform="matrix(.010000001,0,0,-.010000001,115.52937,205.55812)" d="M411 463C401 469 390 473 378 476 366 478 353 480 339 480 288 480 249 463 222 430 194 397 181 350 181 288V0H91V547H181V462C199 495 224 520 254 536 284 552 321 560 365 560 371 560 378 559 386 559 393 558 401 557 411 555V463Z"/>
<path transform="matrix(.010000001,0,0,-.010000001,119.63937,205.55812)" d="M343 275C270 275 220 266 192 250 164 233 150 205 150 165 150 133 160 107 181 89 202 70 231 61 267 61 317 61 357 78 387 114 417 149 432 196 432 255V275H343ZM522 312V0H432V83C411 49 385 25 355 10 325-5 287-13 243-13 187-13 142 2 109 33 76 64 60 106 60 159 60 220 80 266 122 298 163 329 224 345 306 345H432V354C432 395 418 427 391 450 364 472 326 484 277 484 245 484 215 480 185 472 155 464 127 453 100 439V522C132 534 164 544 195 550 226 556 256 560 286 560 365 560 424 539 463 498 502 457 522 395 522 312Z"/>
<path transform="matrix(.010000001,0,0,-.010000001,125.76938,205.55812)" d="M98 729H517V646H197V431H486V348H197V0H98V729Z"/>
<path transform="matrix(.010000001,0,0,-.010000001,130.9725,205.55812)" d="M562 296V252H149C153 190 171 142 205 110 238 78 284 62 344 62 378 62 412 66 444 74 476 82 509 95 541 113V28C509 14 476 3 442-3 408-9 373-13 339-13 251-13 182 12 131 62 80 112 55 181 55 268 55 357 79 428 127 481 175 533 241 560 323 560 397 560 455 536 498 489 540 441 562 377 562 296ZM472 322C471 371 457 410 431 440 404 469 368 484 324 484 274 484 234 469 204 441 174 413 156 373 152 322H472Z"/>
<path transform="matrix(.010000001,0,0,-.010000001,137.1225,205.55812)" d="M562 296V252H149C153 190 171 142 205 110 238 78 284 62 344 62 378 62 412 66 444 74 476 82 509 95 541 113V28C509 14 476 3 442-3 408-9 373-13 339-13 251-13 182 12 131 62 80 112 55 181 55 268 55 357 79 428 127 481 175 533 241 560 323 560 397 560 455 536 498 489 540 441 562 377 562 296ZM472 322C471 371 457 410 431 440 404 469 368 484 324 484 274 484 234 469 204 441 174 413 156 373 152 322H472Z"/>
<path transform="matrix(.010000001,0,0,-.010000001,143.2725,205.55812)" d="M454 464V760H544V0H454V82C435 49 411 25 382 10 353-5 319-13 279-13 213-13 159 13 117 65 75 117 55 187 55 273 55 359 75 428 117 481 159 533 213 560 279 560 319 560 353 552 382 536 411 520 435 496 454 464ZM148 273C148 207 161 155 188 117 215 79 252 61 300 61 348 61 385 79 413 117 440 155 454 207 454 273 454 339 440 390 413 428 385 466 348 485 300 485 252 485 215 466 188 428 161 390 148 339 148 273Z"/>
<path transform="matrix(.010000001,0,0,-.010000001,149.6225,205.55812)" d="M487 273C487 339 473 390 446 428 418 466 381 485 334 485 286 485 249 466 222 428 194 390 181 339 181 273 181 207 194 155 222 117 249 79 286 61 334 61 381 61 418 79 446 117 473 155 487 207 487 273ZM181 464C199 496 223 520 252 536 281 552 316 560 356 560 422 560 476 533 518 481 559 428 580 359 580 273 580 187 559 117 518 65 476 13 422-13 356-13 316-13 281-5 252 10 223 25 199 49 181 82V0H91V760H181V464Z"/>
<path transform="matrix(.010000001,0,0,-.010000001,155.9725,205.55812)" d="M343 275C270 275 220 266 192 250 164 233 150 205 150 165 150 133 160 107 181 89 202 70 231 61 267 61 317 61 357 78 387 114 417 149 432 196 432 255V275H343ZM522 312V0H432V83C411 49 385 25 355 10 325-5 287-13 243-13 187-13 142 2 109 33 76 64 60 106 60 159 60 220 80 266 122 298 163 329 224 345 306 345H432V354C432 395 418 427 391 450 364 472 326 484 277 484 245 484 215 480 185 472 155 464 127 453 100 439V522C132 534 164 544 195 550 226 556 256 560 286 560 365 560 424 539 463 498 502 457 522 395 522 312Z"/>
<path transform="matrix(.010000001,0,0,-.010000001,162.10251,205.55812)" d="M488 526V442C462 456 437 466 411 473 385 480 360 484 334 484 276 484 230 465 198 428 166 391 150 339 150 273 150 206 166 154 198 117 230 80 276 62 334 62 360 62 385 65 411 72 437 79 462 90 488 104V21C462 9 436 0 410-5 383-10 354-13 324-13 242-13 176 12 128 64 79 115 55 185 55 273 55 362 79 432 128 483 177 534 244 560 330 560 358 560 385 557 411 551 437 545 463 537 488 526Z"/>
<path transform="matrix(.010000001,0,0,-.010000001,167.60251,205.55812)" d="M91 760H181V311L449 547H564L274 291 576 0H459L181 267V0H91V760Z"/>
<path transform="matrix(1,0,0,-1,0,218.83625)" stroke-width="1.5" stroke-linecap="square" stroke-linejoin="round" fill="none" stroke="#ffffff" d="M193.44687 16.778126H203.44687 213.44687"/>
<path transform="matrix(1,0,0,-1,0,218.83625)" d="M203.44687 11.778125C204.77289 11.778125 206.04477 12.304957 206.9824 13.242591 207.92005 14.180226 208.44687 15.45211 208.44687 16.778126 208.44687 18.104142 207.92005 19.376025 206.9824 20.31366 206.04477 21.251294 204.77289 21.778126 203.44687 21.778126 202.12087 21.778126 200.84897 21.251294 199.91135 20.31366 198.97371 19.376025 198.44687 18.104142 198.44687 16.778126 198.44687 15.45211 198.97371 14.180226 199.91135 13.242591 200.84897 12.304957 202.12087 11.778125 203.44687 11.778125Z" fill="#ffb000"/>
<path transform="matrix(1,0,0,-1,0,218.83625)" stroke-width="1" stroke-linecap="butt" stroke-linejoin="round" fill="none" stroke="#ffffff" d="M203.44687 11.778125C204.77289 11.778125 206.04477 12.304957 206.9824 13.242591 207.92005 14.180226 208.44687 15.45211 208.44687 16.778126 208.44687 18.104142 207.92005 19.376025 206.9824 20.31366 206.04477 21.251294 204.77289 21.778126 203.44687 21.778126 202.12087 21.778126 200.84897 21.251294 199.91135 20.31366 198.97371 19.376025 198.44687 18.104142 198.44687 16.778126 198.44687 15.45211 198.97371 14.180226 199.91135 13.242591 200.84897 12.304957 202.12087 11.778125 203.44687 11.778125Z"/>
<path transform="matrix(.010000001,0,0,-.010000001,221.44687,205.55812)" d="M98 729H245L431 233 618 729H765V0H669V640L481 140H382L194 640V0H98V729Z"/>
<path transform="matrix(.010000001,0,0,-.010000001,230.07688,205.55812)" d="M343 275C270 275 220 266 192 250 164 233 150 205 150 165 150 133 160 107 181 89 202 70 231 61 267 61 317 61 357 78 387 114 417 149 432 196 432 255V275H343ZM522 312V0H432V83C411 49 385 25 355 10 325-5 287-13 243-13 187-13 142 2 109 33 76 64 60 106 60 159 60 220 80 266 122 298 163 329 224 345 306 345H432V354C432 395 418 427 391 450 364 472 326 484 277 484 245 484 215 480 185 472 155 464 127 453 100 439V522C132 534 164 544 195 550 226 556 256 560 286 560 365 560 424 539 463 498 502 457 522 395 522 312Z"/>
<path transform="matrix(.010000001,0,0,-.010000001,236.20687,205.55812)" d="M183 702V547H368V477H183V180C183 135 189 106 201 94 213 81 238 75 276 75H368V0H276C206 0 158 13 132 39 106 65 93 112 93 180V477H27V547H93V702H183Z"/>
<path transform="matrix(.010000001,0,0,-.010000001,240.12686,205.55812)" d="M549 330V0H459V327C459 379 448 417 428 443 408 469 378 482 338 482 289 482 251 466 223 435 195 404 181 362 181 309V0H91V760H181V462C202 494 227 519 257 535 286 551 320 560 358 560 420 560 468 540 500 501 532 462 549 405 549 330Z"/>
<path transform="matrix(1,0,0,-1,0,218.83625)" stroke-width="1.5" stroke-linecap="square" stroke-linejoin="round" fill="none" stroke="#ffffff" d="M266.4625 16.778126H276.4625 286.4625"/>
<path transform="matrix(1,0,0,-1,0,218.83625)" d="M276.4625 11.778125C277.7885 11.778125 279.0604 12.304957 279.99806 13.242591 280.93568 14.180226 281.4625 15.45211 281.4625 16.778126 281.4625 18.104142 280.93568 19.376025 279.99806 20.31366 279.0604 21.251294 277.7885 21.778126 276.4625 21.778126 275.13648 21.778126 273.8646 21.251294 272.92698 20.31366 271.98933 19.376025 271.4625 18.104142 271.4625 16.778126 271.4625 15.45211 271.98933 14.180226 272.92698 13.242591 273.8646 12.304957 275.13648 11.778125 276.4625 11.778125Z" fill="#785ef0"/>
<path transform="matrix(1,0,0,-1,0,218.83625)" stroke-width="1" stroke-linecap="butt" stroke-linejoin="round" fill="none" stroke="#ffffff" d="M276.4625 11.778125C277.7885 11.778125 279.0604 12.304957 279.99806 13.242591 280.93568 14.180226 281.4625 15.45211 281.4625 16.778126 281.4625 18.104142 280.93568 19.376025 279.99806 20.31366 279.0604 21.251294 277.7885 21.778126 276.4625 21.778126 275.13648 21.778126 273.8646 21.251294 272.92698 20.31366 271.98933 19.376025 271.4625 18.104142 271.4625 16.778126 271.4625 15.45211 271.98933 14.180226 272.92698 13.242591 273.8646 12.304957 275.13648 11.778125 276.4625 11.778125Z"/>
<path transform="matrix(.010000001,0,0,-.010000001,294.4625,205.55812)" d="M98 729H197V430H555V729H654V0H555V347H197V0H98V729Z"/>
<path transform="matrix(.010000001,0,0,-.010000001,301.98249,205.55812)" d="M85 216V547H175V219C175 167 185 129 205 103 225 77 255 64 296 64 344 64 383 79 411 110 439 141 453 183 453 237V547H543V0H453V84C431 50 405 26 377 10 348-5 315-13 277-13 214-13 166 6 134 45 101 83 85 140 85 216ZM311 560V560Z"/>
<path transform="matrix(.010000001,0,0,-.010000001,308.3225,205.55812)" d="M520 442C542 482 569 511 600 531 631 550 668 560 711 560 767 560 811 540 842 500 873 460 889 403 889 330V0H799V327C799 379 789 418 771 444 752 469 724 482 686 482 639 482 602 466 575 435 548 404 535 362 535 309V0H445V327C445 379 435 418 417 444 398 469 369 482 331 482 285 482 248 466 221 435 194 404 181 362 181 309V0H91V547H181V462C201 495 226 520 255 536 283 552 317 560 357 560 397 560 430 550 458 530 486 510 506 480 520 442Z"/>
<path transform="matrix(.010000001,0,0,-.010000001,318.0625,205.55812)" d="M343 275C270 275 220 266 192 250 164 233 150 205 150 165 150 133 160 107 181 89 202 70 231 61 267 61 317 61 357 78 387 114 417 149 432 196 432 255V275H343ZM522 312V0H432V83C411 49 385 25 355 10 325-5 287-13 243-13 187-13 142 2 109 33 76 64 60 106 60 159 60 220 80 266 122 298 163 329 224 345 306 345H432V354C432 395 418 427 391 450 364 472 326 484 277 484 245 484 215 480 185 472 155 464 127 453 100 439V522C132 534 164 544 195 550 226 556 256 560 286 560 365 560 424 539 463 498 502 457 522 395 522 312Z"/>
<path transform="matrix(.010000001,0,0,-.010000001,324.1925,205.55812)" d="M549 330V0H459V327C459 379 448 417 428 443 408 469 378 482 338 482 289 482 251 466 223 435 195 404 181 362 181 309V0H91V547H181V462C202 494 227 519 257 535 286 551 320 560 358 560 420 560 468 540 500 501 532 462 549 405 549 330Z"/>
<path transform="matrix(.010000001,0,0,-.010000001,330.5325,205.55812)" d="M49 314H312V234H49V314Z"/>
<path transform="matrix(.010000001,0,0,-.010000001,334.1425,205.55812)" d="M94 760H184V0H94V760Z"/>
<path transform="matrix(.010000001,0,0,-.010000001,336.9225,205.55812)" d="M94 547H184V0H94V547ZM94 760H184V646H94V760Z"/>
<path transform="matrix(.010000001,0,0,-.010000001,339.70249,205.55812)" d="M91 760H181V311L449 547H564L274 291 576 0H459L181 267V0H91V760Z"/>
<path transform="matrix(.010000001,0,0,-.010000001,345.14875,205.55812)" d="M562 296V252H149C153 190 171 142 205 110 238 78 284 62 344 62 378 62 412 66 444 74 476 82 509 95 541 113V28C509 14 476 3 442-3 408-9 373-13 339-13 251-13 182 12 131 62 80 112 55 181 55 268 55 357 79 428 127 481 175 533 241 560 323 560 397 560 455 536 498 489 540 441 562 377 562 296ZM472 322C471 371 457 410 431 440 404 469 368 484 324 484 274 484 234 469 204 441 174 413 156 373 152 322H472Z"/>
</svg>
