<svg xmlns="http://www.w3.org/2000/svg" xmlns:xlink="http://www.w3.org/1999/xlink" xmlns:inkscape="http://www.inkscape.org/namespaces/inkscape" version="1.1" width="441.68125" height="218.83625" viewBox="0 0 441.68125 218.83625">
<defs>
<clipPath id="clip_1">
<path transform="matrix(1,0,0,-1,0,218.83625)" d="M15.640625 49.72H426.04063V193.48H15.640625Z"/>
</clipPath>
<clipPath id="clip_2">
<path transform="matrix(1,0,0,-1,0,218.83625)" d="M15.640625 49.72H426.04063V193.48H15.640625Z"/>
</clipPath>
<clipPath id="clip_3">
<path transform="matrix(1,0,0,-1,0,218.83625)" d="M15.640625 49.72H426.04063V193.48H15.640625Z"/>
</clipPath>
<clipPath id="clip_4">
<path transform="matrix(1,0,0,-1,0,218.83625)" d="M15.640625 49.72H426.04063V193.48H15.640625Z"/>
</clipPath>
<clipPath id="clip_5">
<path transform="matrix(1,0,0,-1,0,218.83625)" d="M15.640625 49.72H426.04063V193.48H15.640625Z"/>
</clipPath>
<clipPath id="clip_6">
<path transform="matrix(1,0,0,-1,0,218.83625)" d="M15.640625 49.72H426.04063V193.48H15.640625Z"/>
</clipPath>
<clipPath id="clip_7">
<path transform="matrix(1,0,0,-1,0,218.83625)" d="M15.640625 49.72H426.04063V193.48H15.640625Z"/>
</clipPath>
<clipPath id="clip_8">
<path transform="matrix(1,0,0,-1,0,218.83625)" d="M15.640625 49.72H426.04063V193.48H15.640625Z"/>
</clipPath>
<clipPath id="clip_9">
<path transform="matrix(1,0,0,-1,0,218.83625)" d="M15.640625 49.72H426.04063V193.48H15.640625Z"/>
</clipPath>
<clipPath id="clip_10">
<path transform="matrix(1,0,0,-1,0,218.83625)" d="M15.640625 49.72H426.04063V193.48H15.640625Z"/>
</clipPath>
<clipPath id="clip_11">
<path transform="matrix(1,0,0,-1,0,218.83625)" d="M15.640625 49.72H426.04063V193.48H15.640625Z"/>
</clipPath>
<clipPath id="clip_12">
<path transform="matrix(1,0,0,-1,0,218.83625)" d="M15.640625 49.72H426.04063V193.48H15.640625Z"/>
</clipPath>
<clipPath id="clip_13">
<path transform="matrix(1,0,0,-1,0,218.83625)" d="M15.640625 49.72H426.04063V193.48H15.640625Z"/>
</clipPath>
<clipPath id="clip_14">
<path transform="matrix(1,0,0,-1,0,218.83625)" d="M15.640625 49.72H426.04063V193.48H15.640625Z"/>
</clipPath>
<clipPath id="clip_15">
<path transform="matrix(1,0,0,-1,0,218.83625)" d="M15.640625 49.72H426.04063V193.48H15.640625Z"/>
</clipPath>
<clipPath id="clip_16">
<path transform="matrix(1,0,0,-1,0,218.83625)" d="M15.640625 49.72H426.04063V193.48H15.640625Z"/>
</clipPath>
<clipPath id="clip_17">
<path transform="matrix(1,0,0,-1,0,218.83625)" d="M15.640625 49.72H426.04063V193.48H15.640625Z"/>
</clipPath>
<clipPath id="clip_18">
<path transform="matrix(1,0,0,-1,0,218.83625)" d="M15.640625 49.72H426.04063V193.48H15.640625Z"/>
</clipPath>
<clipPath id="clip_19">
<path transform="matrix(1,0,0,-1,0,218.83625)" d="M15.640625 49.72H426.04063V193.48H15.640625Z"/>
</clipPath>
<clipPath id="clip_20">
<path transform="matrix(1,0,0,-1,0,218.83625)" d="M15.640625 49.72H426.04063V193.48H15.640625Z"/>
</clipPath>
</defs>
<path transform="matrix(1,0,0,-1,0,218.83625)" d="M0 0H441.68125V218.83625H0Z" fill="#ffffff"/>
<path transform="matrix(1,0,0,-1,0,218.83625)" d="M15.640625 49.72H426.04063V193.48H15.640625Z" fill="#ffffff"/>
<g clip-path="url(#clip_1)">
<path transform="matrix(1,0,0,-1,0,218.83625)" d="M155.75434 59.790079 152.2188 52.719015H159.28986Z" fill="#648fff"/>
<path transform="matrix(1,0,0,-1,0,218.83625)" stroke-width="1" stroke-linecap="butt" stroke-linejoin="round" fill="none" stroke="#648fff" d="M155.75434 59.790079 152.2188 52.719015H159.28986Z"/>
</g>
<g clip-path="url(#clip_2)">
<path transform="matrix(1,0,0,-1,0,218.83625)" d="M184.76732 123.19351 181.23178 116.122447H188.30286Z" fill="#ffb000"/>
<path transform="matrix(1,0,0,-1,0,218.83625)" stroke-width="1" stroke-linecap="butt" stroke-linejoin="round" fill="none" stroke="#ffb000" d="M184.76732 123.19351 181.23178 116.122447H188.30286Z"/>
</g>
<g clip-path="url(#clip_3)">
<path transform="matrix(1,0,0,-1,0,218.83625)" d="M180.59073 190.48099 177.05519 183.40993H184.12627Z" fill="#dc267f"/>
<path transform="matrix(1,0,0,-1,0,218.83625)" stroke-width="1" stroke-linecap="butt" stroke-linejoin="round" fill="none" stroke="#dc267f" d="M180.59073 190.48099 177.05519 183.40993H184.12627Z"/>
</g>
<g clip-path="url(#clip_4)">
<path transform="matrix(1,0,0,-1,0,218.83625)" d="M73.40559 103.56594 69.87005 96.49487H76.94112Z" fill="#785ef0"/>
<path transform="matrix(1,0,0,-1,0,218.83625)" stroke-width="1" stroke-linecap="butt" stroke-linejoin="round" fill="none" stroke="#785ef0" d="M73.40559 103.56594 69.87005 96.49487H76.94112Z"/>
</g>
<g clip-path="url(#clip_5)">
<path transform="matrix(1,0,0,-1,0,218.83625)" d="M407.38609 130.4203 403.85057 123.349239H410.9216Z" fill="#fe6100"/>
<path transform="matrix(1,0,0,-1,0,218.83625)" stroke-width="1" stroke-linecap="butt" stroke-linejoin="round" fill="none" stroke="#fe6100" d="M407.38609 130.4203 403.85057 123.349239H410.9216Z"/>
</g>
<g clip-path="url(#clip_6)">
<path transform="matrix(1,0,0,-1,0,218.83625)" d="M121.37414 61.10452C122.40127 61.10452 123.38646 61.512605 124.11275 62.23889 124.83904 62.96518 125.24712 63.950376 125.24712 64.9775 125.24712 66.00463 124.83904 66.98983 124.11275 67.71612 123.38646 68.442409 122.40127 68.85049 121.37414 68.85049 120.34701 68.85049 119.36182 68.442409 118.63553 67.71612 117.90924 66.98983 117.50115 66.00463 117.50115 64.9775 117.50115 63.950376 117.90924 62.96518 118.63553 62.23889 119.36182 61.512605 120.34701 61.10452 121.37414 61.10452Z" fill="#648fff"/>
<path transform="matrix(1,0,0,-1,0,218.83625)" stroke-width="1" stroke-linecap="butt" stroke-linejoin="round" fill="none" stroke="#648fff" d="M121.37414 61.10452C122.40127 61.10452 123.38646 61.512605 124.11275 62.23889 124.83904 62.96518 125.24712 63.950376 125.24712 64.9775 125.24712 66.00463 124.83904 66.98983 124.11275 67.71612 123.38646 68.442409 122.40127 68.85049 121.37414 68.85049 120.34701 68.85049 119.36182 68.442409 118.63553 67.71612 117.90924 66.98983 117.50115 66.00463 117.50115 64.9775 117.50115 63.950376 117.90924 62.96518 118.63553 62.23889 119.36182 61.512605 120.34701 61.10452 121.37414 61.10452Z"/>
</g>
<g clip-path="url(#clip_7)">
<path transform="matrix(1,0,0,-1,0,218.83625)" d="M121.2725 74.115688C122.29963 74.115688 123.28482 74.523769 124.01111 75.25005 124.737407 75.97634 125.145488 76.96154 125.145488 77.98867 125.145488 79.01579 124.737407 80.00099 124.01111 80.72728 123.28482 81.45357 122.29963 81.86165 121.2725 81.86165 120.24537 81.86165 119.26018 81.45357 118.53389 80.72728 117.807598 80.00099 117.39951 79.01579 117.39951 77.98867 117.39951 76.96154 117.807598 75.97634 118.53389 75.25005 119.26018 74.523769 120.24537 74.115688 121.2725 74.115688Z" fill="#648fff"/>
<path transform="matrix(1,0,0,-1,0,218.83625)" stroke-width="1" stroke-linecap="butt" stroke-linejoin="round" fill="none" stroke="#648fff" d="M121.2725 74.115688C122.29963 74.115688 123.28482 74.523769 124.01111 75.25005 124.737407 75.97634 125.145488 76.96154 125.145488 77.98867 125.145488 79.01579 124.737407 80.00099 124.01111 80.72728 123.28482 81.45357 122.29963 81.86165 121.2725 81.86165 120.24537 81.86165 119.26018 81.45357 118.53389 80.72728 117.807598 80.00099 117.39951 79.01579 117.39951 77.98867 117.39951 76.96154 117.807598 75.97634 118.53389 75.25005 119.26018 74.523769 120.24537 74.115688 121.2725 74.115688Z"/>
</g>
<g clip-path="url(#clip_8)">
<path transform="matrix(1,0,0,-1,0,218.83625)" d="M137.36383 60.252664C138.39096 60.252664 139.37616 60.660749 140.10245 61.387037 140.82874 62.113325 141.23682 63.098524 141.23682 64.12565 141.23682 65.15278 140.82874 66.13797 140.10245 66.86426 139.37616 67.590549 138.39096 67.998638 137.36383 67.998638 136.3367 67.998638 135.35152 67.590549 134.62522 66.86426 133.89893 66.13797 133.49085 65.15278 133.49085 64.12565 133.49085 63.098524 133.89893 62.113325 134.62522 61.387037 135.35152 60.660749 136.3367 60.252664 137.36383 60.252664Z" fill="#648fff"/>
<path transform="matrix(1,0,0,-1,0,218.83625)" stroke-width="1" stroke-linecap="butt" stroke-linejoin="round" fill="none" stroke="#648fff" d="M137.36383 60.252664C138.39096 60.252664 139.37616 60.660749 140.10245 61.387037 140.82874 62.113325 141.23682 63.098524 141.23682 64.12565 141.23682 65.15278 140.82874 66.13797 140.10245 66.86426 139.37616 67.590549 138.39096 67.998638 137.36383 67.998638 136.3367 67.998638 135.35152 67.590549 134.62522 66.86426 133.89893 66.13797 133.49085 65.15278 133.49085 64.12565 133.49085 63.098524 133.89893 62.113325 134.62522 61.387037 135.35152 60.660749 136.3367 60.252664 137.36383 60.252664Z"/>
</g>
<g clip-path="url(#clip_9)">
<path transform="matrix(1,0,0,-1,0,218.83625)" d="M194.04735 128.48471C195.07448 128.48471 196.05968 128.89279 196.78597 129.61908 197.51226 130.34537 197.92034 131.33057 197.92034 132.3577 197.92034 133.38483 197.51226 134.37001 196.78597 135.09632 196.05968 135.8226 195.07448 136.23069 194.04735 136.23069 193.02022 136.23069 192.03504 135.8226 191.30875 135.09632 190.58246 134.37001 190.17436 133.38483 190.17436 132.3577 190.17436 131.33057 190.58246 130.34537 191.30875 129.61908 192.03504 128.89279 193.02022 128.48471 194.04735 128.48471Z" fill="#ffb000"/>
<path transform="matrix(1,0,0,-1,0,218.83625)" stroke-width="1" stroke-linecap="butt" stroke-linejoin="round" fill="none" stroke="#ffb000" d="M194.04735 128.48471C195.07448 128.48471 196.05968 128.89279 196.78597 129.61908 197.51226 130.34537 197.92034 131.33057 197.92034 132.3577 197.92034 133.38483 197.51226 134.37001 196.78597 135.09632 196.05968 135.8226 195.07448 136.23069 194.04735 136.23069 193.02022 136.23069 192.03504 135.8226 191.30875 135.09632 190.58246 134.37001 190.17436 133.38483 190.17436 132.3577 190.17436 131.33057 190.58246 130.34537 191.30875 129.61908 192.03504 128.89279 193.02022 128.48471 194.04735 128.48471Z"/>
</g>
<g clip-path="url(#clip_10)">
<path transform="matrix(1,0,0,-1,0,218.83625)" d="M203.16086 110.2365C204.18798 110.2365 205.17317 110.644588 205.89946 111.37087 206.62575 112.09716 207.03383 113.08236 207.03383 114.10948 207.03383 115.13661 206.62575 116.12181 205.89946 116.8481 205.17317 117.57439 204.18798 117.98247 203.16086 117.98247 202.13373 117.98247 201.14853 117.57439 200.42224 116.8481 199.69596 116.12181 199.28787 115.13661 199.28787 114.10948 199.28787 113.08236 199.69596 112.09716 200.42224 111.37087 201.14853 110.644588 202.13373 110.2365 203.16086 110.2365Z" fill="#ffb000"/>
<path transform="matrix(1,0,0,-1,0,218.83625)" stroke-width="1" stroke-linecap="butt" stroke-linejoin="round" fill="none" stroke="#ffb000" d="M203.16086 110.2365C204.18798 110.2365 205.17317 110.644588 205.89946 111.37087 206.62575 112.09716 207.03383 113.08236 207.03383 114.10948 207.03383 115.13661 206.62575 116.12181 205.89946 116.8481 205.17317 117.57439 204.18798 117.98247 203.16086 117.98247 202.13373 117.98247 201.14853 117.57439 200.42224 116.8481 199.69596 116.12181 199.28787 115.13661 199.28787 114.10948 199.28787 113.08236 199.69596 112.09716 200.42224 111.37087 201.14853 110.644588 202.13373 110.2365 203.16086 110.2365Z"/>
</g>
<g clip-path="url(#clip_11)">
<path transform="matrix(1,0,0,-1,0,218.83625)" d="M211.48558 122.14367C212.51271 122.14367 213.49791 122.55175 214.2242 123.27804 214.95049 124.004329 215.35857 124.989528 215.35857 126.01665 215.35857 127.04378 214.95049 128.02898 214.2242 128.75527 213.49791 129.48155 212.51271 129.88964 211.48558 129.88964 210.45845 129.88964 209.47325 129.48155 208.74697 128.75527 208.02068 128.02898 207.6126 127.04378 207.6126 126.01665 207.6126 124.989528 208.02068 124.004329 208.74697 123.27804 209.47325 122.55175 210.45845 122.14367 211.48558 122.14367Z" fill="#ffb000"/>
<path transform="matrix(1,0,0,-1,0,218.83625)" stroke-width="1" stroke-linecap="butt" stroke-linejoin="round" fill="none" stroke="#ffb000" d="M211.48558 122.14367C212.51271 122.14367 213.49791 122.55175 214.2242 123.27804 214.95049 124.004329 215.35857 124.989528 215.35857 126.01665 215.35857 127.04378 214.95049 128.02898 214.2242 128.75527 213.49791 129.48155 212.51271 129.88964 211.48558 129.88964 210.45845 129.88964 209.47325 129.48155 208.74697 128.75527 208.02068 128.02898 207.6126 127.04378 207.6126 126.01665 207.6126 124.989528 208.02068 124.004329 208.74697 123.27804 209.47325 122.55175 210.45845 122.14367 211.48558 122.14367Z"/>
</g>
<g clip-path="url(#clip_12)">
<path transform="matrix(1,0,0,-1,0,218.83625)" d="M200.9963 178.03949C202.02344 178.03949 203.00864 178.44757 203.73493 179.17386 204.46121 179.90015 204.8693 180.88535 204.8693 181.91248 204.8693 182.9396 204.46121 183.9248 203.73493 184.6511 203.00864 185.37738 202.02344 185.78546 200.9963 185.78546 199.9692 185.78546 198.984 185.37738 198.2577 184.6511 197.53142 183.9248 197.12332 182.9396 197.12332 181.91248 197.12332 180.88535 197.53142 179.90015 198.2577 179.17386 198.984 178.44757 199.9692 178.03949 200.9963 178.03949Z" fill="#dc267f"/>
<path transform="matrix(1,0,0,-1,0,218.83625)" stroke-width="1" stroke-linecap="butt" stroke-linejoin="round" fill="none" stroke="#dc267f" d="M200.9963 178.03949C202.02344 178.03949 203.00864 178.44757 203.73493 179.17386 204.46121 179.90015 204.8693 180.88535 204.8693 181.91248 204.8693 182.9396 204.46121 183.9248 203.73493 184.6511 203.00864 185.37738 202.02344 185.78546 200.9963 185.78546 199.9692 185.78546 198.984 185.37738 198.2577 184.6511 197.53142 183.9248 197.12332 182.9396 197.12332 181.91248 197.12332 180.88535 197.53142 179.90015 198.2577 179.17386 198.984 178.44757 199.9692 178.03949 200.9963 178.03949Z"/>
</g>
<g clip-path="url(#clip_13)">
<path transform="matrix(1,0,0,-1,0,218.83625)" d="M193.08838 146.83925C194.11551 146.83925 195.10071 147.24733 195.827 147.97362 196.55329 148.6999 196.96137 149.6851 196.96137 150.71224 196.96137 151.73937 196.55329 152.72457 195.827 153.45085 195.10071 154.17714 194.11551 154.58522 193.08838 154.58522 192.06125 154.58522 191.07605 154.17714 190.34976 153.45085 189.62348 152.72457 189.2154 151.73937 189.2154 150.71224 189.2154 149.6851 189.62348 148.6999 190.34976 147.97362 191.07605 147.24733 192.06125 146.83925 193.08838 146.83925Z" fill="#dc267f"/>
<path transform="matrix(1,0,0,-1,0,218.83625)" stroke-width="1" stroke-linecap="butt" stroke-linejoin="round" fill="none" stroke="#dc267f" d="M193.08838 146.83925C194.11551 146.83925 195.10071 147.24733 195.827 147.97362 196.55329 148.6999 196.96137 149.6851 196.96137 150.71224 196.96137 151.73937 196.55329 152.72457 195.827 153.45085 195.10071 154.17714 194.11551 154.58522 193.08838 154.58522 192.06125 154.58522 191.07605 154.17714 190.34976 153.45085 189.62348 152.72457 189.2154 151.73937 189.2154 150.71224 189.2154 149.6851 189.62348 148.6999 190.34976 147.97362 191.07605 147.24733 192.06125 146.83925 193.08838 146.83925Z"/>
</g>
<g clip-path="url(#clip_14)">
<path transform="matrix(1,0,0,-1,0,218.83625)" d="M193.16742 167.25766C194.19455 167.25766 195.17975 167.66574 195.90604 168.39203 196.63233 169.11832 197.0404 170.10352 197.0404 171.13065 197.0404 172.15776 196.63233 173.14296 195.90604 173.86925 195.17975 174.59555 194.19455 175.00363 193.16742 175.00363 192.14029 175.00363 191.15509 174.59555 190.4288 173.86925 189.70252 173.14296 189.29444 172.15776 189.29444 171.13065 189.29444 170.10352 189.70252 169.11832 190.4288 168.39203 191.15509 167.66574 192.14029 167.25766 193.16742 167.25766Z" fill="#dc267f"/>
<path transform="matrix(1,0,0,-1,0,218.83625)" stroke-width="1" stroke-linecap="butt" stroke-linejoin="round" fill="none" stroke="#dc267f" d="M193.16742 167.25766C194.19455 167.25766 195.17975 167.66574 195.90604 168.39203 196.63233 169.11832 197.0404 170.10352 197.0404 171.13065 197.0404 172.15776 196.63233 173.14296 195.90604 173.86925 195.17975 174.59555 194.19455 175.00363 193.16742 175.00363 192.14029 175.00363 191.15509 174.59555 190.4288 173.86925 189.70252 173.14296 189.29444 172.15776 189.29444 171.13065 189.29444 170.10352 189.70252 169.11832 190.4288 168.39203 191.15509 167.66574 192.14029 167.25766 193.16742 167.25766Z"/>
</g>
<g clip-path="url(#clip_15)">
<path transform="matrix(1,0,0,-1,0,218.83625)" d="M57.355604 97.913188C58.38273 97.913188 59.367929 98.321269 60.094217 99.047557 60.820505 99.77384 61.228586 100.75904 61.228586 101.78617 61.228586 102.81329 60.820505 103.79849 60.094217 104.52478 59.367929 105.25107 58.38273 105.65915 57.355604 105.65915 56.328477 105.65915 55.343278 105.25107 54.61699 104.52478 53.8907 103.79849 53.482618 102.81329 53.482618 101.78617 53.482618 100.75904 53.8907 99.77384 54.61699 99.047557 55.343278 98.321269 56.328477 97.913188 57.355604 97.913188Z" fill="#785ef0"/>
<path transform="matrix(1,0,0,-1,0,218.83625)" stroke-width="1" stroke-linecap="butt" stroke-linejoin="round" fill="none" stroke="#785ef0" d="M57.355604 97.913188C58.38273 97.913188 59.367929 98.321269 60.094217 99.047557 60.820505 99.77384 61.228586 100.75904 61.228586 101.78617 61.228586 102.81329 60.820505 103.79849 60.094217 104.52478 59.367929 105.25107 58.38273 105.65915 57.355604 105.65915 56.328477 105.65915 55.343278 105.25107 54.61699 104.52478 53.8907 103.79849 53.482618 102.81329 53.482618 101.78617 53.482618 100.75904 53.8907 99.77384 54.61699 99.047557 55.343278 98.321269 56.328477 97.913188 57.355604 97.913188Z"/>
</g>
<g clip-path="url(#clip_16)">
<path transform="matrix(1,0,0,-1,0,218.83625)" d="M34.29517 86.79383C35.322298 86.79383 36.307497 87.20191 37.033784 87.9282 37.76007 88.65449 38.168157 89.63969 38.168157 90.66681 38.168157 91.69394 37.76007 92.67914 37.033784 93.405429 36.307497 94.131717 35.322298 94.539798 34.29517 94.539798 33.268045 94.539798 32.282846 94.131717 31.556559 93.405429 30.830269 92.67914 30.422188 91.69394 30.422188 90.66681 30.422188 89.63969 30.830269 88.65449 31.556559 87.9282 32.282846 87.20191 33.268045 86.79383 34.29517 86.79383Z" fill="#785ef0"/>
<path transform="matrix(1,0,0,-1,0,218.83625)" stroke-width="1" stroke-linecap="butt" stroke-linejoin="round" fill="none" stroke="#785ef0" d="M34.29517 86.79383C35.322298 86.79383 36.307497 87.20191 37.033784 87.9282 37.76007 88.65449 38.168157 89.63969 38.168157 90.66681 38.168157 91.69394 37.76007 92.67914 37.033784 93.405429 36.307497 94.131717 35.322298 94.539798 34.29517 94.539798 33.268045 94.539798 32.282846 94.131717 31.556559 93.405429 30.830269 92.67914 30.422188 91.69394 30.422188 90.66681 30.422188 89.63969 30.830269 88.65449 31.556559 87.9282 32.282846 87.20191 33.268045 86.79383 34.29517 86.79383Z"/>
</g>
<g clip-path="url(#clip_17)">
<path transform="matrix(1,0,0,-1,0,218.83625)" d="M42.066034 100.3111C43.09316 100.3111 44.078355 100.71918 44.80464 101.445468 45.530935 102.17175 45.939016 103.15695 45.939016 104.18408 45.939016 105.211208 45.530935 106.1964 44.80464 106.92269 44.078355 107.64898 43.09316 108.05706 42.066034 108.05706 41.038904 108.05706 40.053709 107.64898 39.32742 106.92269 38.601129 106.1964 38.193048 105.211208 38.193048 104.18408 38.193048 103.15695 38.601129 102.17175 39.32742 101.445468 40.053709 100.71918 41.038904 100.3111 42.066034 100.3111Z" fill="#785ef0"/>
<path transform="matrix(1,0,0,-1,0,218.83625)" stroke-width="1" stroke-linecap="butt" stroke-linejoin="round" fill="none" stroke="#785ef0" d="M42.066034 100.3111C43.09316 100.3111 44.078355 100.71918 44.80464 101.445468 45.530935 102.17175 45.939016 103.15695 45.939016 104.18408 45.939016 105.211208 45.530935 106.1964 44.80464 106.92269 44.078355 107.64898 43.09316 108.05706 42.066034 108.05706 41.038904 108.05706 40.053709 107.64898 39.32742 106.92269 38.601129 106.1964 38.193048 105.211208 38.193048 104.18408 38.193048 103.15695 38.601129 102.17175 39.32742 101.445468 40.053709 100.71918 41.038904 100.3111 42.066034 100.3111Z"/>
</g>
<g clip-path="url(#clip_18)">
<path transform="matrix(1,0,0,-1,0,218.83625)" d="M406.2127 106.543918C407.23985 106.543918 408.22505 106.951999 408.95133 107.67828 409.6776 108.40457 410.0857 109.38977 410.0857 110.41689 410.0857 111.44402 409.6776 112.42922 408.95133 113.15551 408.22505 113.8818 407.23985 114.28988 406.2127 114.28988 405.18559 114.28988 404.20039 113.8818 403.4741 113.15551 402.7478 112.42922 402.33973 111.44402 402.33973 110.41689 402.33973 109.38977 402.7478 108.40457 403.4741 107.67828 404.20039 106.951999 405.18559 106.543918 406.2127 106.543918Z" fill="#fe6100"/>
<path transform="matrix(1,0,0,-1,0,218.83625)" stroke-width="1" stroke-linecap="butt" stroke-linejoin="round" fill="none" stroke="#fe6100" d="M406.2127 106.543918C407.23985 106.543918 408.22505 106.951999 408.95133 107.67828 409.6776 108.40457 410.0857 109.38977 410.0857 110.41689 410.0857 111.44402 409.6776 112.42922 408.95133 113.15551 408.22505 113.8818 407.23985 114.28988 406.2127 114.28988 405.18559 114.28988 404.20039 113.8818 403.4741 113.15551 402.7478 112.42922 402.33973 111.44402 402.33973 110.41689 402.33973 109.38977 402.7478 108.40457 403.4741 107.67828 404.20039 106.951999 405.18559 106.543918 406.2127 106.543918Z"/>
</g>
<g clip-path="url(#clip_19)">
<path transform="matrix(1,0,0,-1,0,218.83625)" d="M388.36564 121.69476C389.39277 121.69476 390.37797 122.102848 391.10426 122.82913 391.83055 123.55542 392.23863 124.54062 392.23863 125.56775 392.23863 126.59487 391.83055 127.58007 391.10426 128.30637 390.37797 129.03266 389.39277 129.44074 388.36564 129.44074 387.3385 129.44074 386.3533 129.03266 385.627 128.30637 384.90074 127.58007 384.49266 126.59487 384.49266 125.56775 384.49266 124.54062 384.90074 123.55542 385.627 122.82913 386.3533 122.102848 387.3385 121.69476 388.36564 121.69476Z" fill="#fe6100"/>
<path transform="matrix(1,0,0,-1,0,218.83625)" stroke-width="1" stroke-linecap="butt" stroke-linejoin="round" fill="none" stroke="#fe6100" d="M388.36564 121.69476C389.39277 121.69476 390.37797 122.102848 391.10426 122.82913 391.83055 123.55542 392.23863 124.54062 392.23863 125.56775 392.23863 126.59487 391.83055 127.58007 391.10426 128.30637 390.37797 129.03266 389.39277 129.44074 388.36564 129.44074 387.3385 129.44074 386.3533 129.03266 385.627 128.30637 384.90074 127.58007 384.49266 126.59487 384.49266 125.56775 384.49266 124.54062 384.90074 123.55542 385.627 122.82913 386.3533 122.102848 387.3385 121.69476 388.36564 121.69476Z"/>
</g>
<g clip-path="url(#clip_20)">
<path transform="matrix(1,0,0,-1,0,218.83625)" d="M388.35734 109.13923C389.38447 109.13923 390.36967 109.54731 391.09596 110.273609 391.82225 110.99989 392.23033 111.985088 392.23033 113.012218 392.23033 114.039348 391.82225 115.024539 391.09596 115.75083 390.36967 116.47712 389.38447 116.8852 388.35734 116.8852 387.3302 116.8852 386.34504 116.47712 385.6187 115.75083 384.89244 115.024539 384.48435 114.039348 384.48435 113.012218 384.48435 111.985088 384.89244 110.99989 385.6187 110.273609 386.34504 109.54731 387.3302 109.13923 388.35734 109.13923Z" fill="#fe6100"/>
<path transform="matrix(1,0,0,-1,0,218.83625)" stroke-width="1" stroke-linecap="butt" stroke-linejoin="round" fill="none" stroke="#fe6100" d="M388.35734 109.13923C389.38447 109.13923 390.36967 109.54731 391.09596 110.273609 391.82225 110.99989 392.23033 111.985088 392.23033 113.012218 392.23033 114.039348 391.82225 115.024539 391.09596 115.75083 390.36967 116.47712 389.38447 116.8852 388.35734 116.8852 387.3302 116.8852 386.34504 116.47712 385.6187 115.75083 384.89244 115.024539 384.48435 114.039348 384.48435 113.012218 384.48435 111.985088 384.89244 110.99989 385.6187 110.273609 386.34504 109.54731 387.3302 109.13923 388.35734 109.13923Z"/>
</g>
<path transform="matrix(1,0,0,-1,0,218.83625)" stroke-width=".8" stroke-linecap="square" stroke-miterlimit="10" stroke-linejoin="miter" fill="none" stroke="#000000" d="M15.640625 49.72V193.48"/>
<path transform="matrix(1,0,0,-1,0,218.83625)" stroke-width=".8" stroke-linecap="square" stroke-miterlimit="10" stroke-linejoin="miter" fill="none" stroke="#000000" d="M15.640625 49.72H426.04063"/>
<path transform="matrix(.016,0,0,-.016,118.96562,19.356247)" d="M430 637H383C382 661 375 680 362 693 348 705 329 712 303 712 269 712 246 702 232 684 218 666 212 633 212 586V519H357V467H212V52H327V0H36V52H122V467H36V519H122V584C122 642 137 685 167 715 197 745 241 760 300 760 322 760 343 758 365 754 387 750 408 744 430 736V637Z"/>
<path transform="matrix(.016,0,0,-.016,124.88562,19.356247)" d="M542 250H155V246C155 176 168 123 194 87 220 51 259 34 311 34 350 34 382 44 408 65 433 85 451 116 461 157H533C519 100 492 57 454 29 415 1 364-13 302-13 226-13 165 11 119 61 73 111 50 177 50 260 50 342 72 408 118 458 163 508 222 533 296 533 374 533 435 508 477 460 519 412 540 342 542 250ZM436 302C434 362 421 408 397 439 373 469 340 485 296 485 254 485 222 469 198 438 174 407 160 362 155 302H436Z"/>
<path transform="matrix(.016,0,0,-.016,134.35762,19.356247)" d="M480 519 613 114 730 467H655V519H843V467H785L631 0H556L428 388 300 0H228L74 467H16V519H251V467H167L283 114 417 519H480Z"/>
<path transform="matrix(.016,0,0,-.016,148.05362,19.356247)" d="M44 306H294V230H44V306Z"/>
<path transform="matrix(.016,0,0,-.016,153.46163,19.356247)" d="M56 29V150H108C109 111 121 82 144 63 167 43 201 34 246 34 286 34 317 41 338 57 359 72 370 94 370 123 370 145 362 164 347 178 331 192 299 207 249 223L184 245C139 259 107 277 87 299 67 320 57 347 57 381 57 428 74 465 109 492 144 519 192 533 254 533 281 533 310 529 340 522 370 515 402 505 434 491V378H382C380 411 369 437 347 456 325 475 295 485 257 485 219 485 190 478 171 465 151 451 142 431 142 405 142 383 149 365 164 352 178 339 208 326 252 312L323 290C372 274 407 255 429 232 451 209 462 180 462 144 462 94 443 56 405 28 367 0 316-13 250-13 216-13 184-9 152-3 120 3 88 14 56 29Z"/>
<path transform="matrix(.016,0,0,-.016,161.66962,19.356247)" d="M41 0V52H122V708H36V760H212V427C228 461 250 488 276 506 302 524 333 533 369 533 426 533 468 516 495 484 522 451 536 400 536 330V52H616V0H368V52H446V302C446 365 438 408 422 432 406 455 379 467 340 467 298 467 266 451 244 421 222 391 212 347 212 289V52H290V0H41Z"/>
<path transform="matrix(.016,0,0,-.016,171.97364,19.356247)" d="M301 34C349 34 385 53 410 91 434 129 447 185 447 259 447 333 434 390 410 428 385 466 349 485 301 485 253 485 216 466 192 428 167 390 155 333 155 259 155 185 167 129 192 91 216 53 253 34 301 34ZM301-13C225-13 165 11 119 61 73 111 50 177 50 260 50 342 72 408 118 458 164 508 225 533 301 533 377 533 437 508 483 458 529 408 552 342 552 260 552 177 529 111 483 61 437 11 377-13 301-13Z"/>
<path transform="matrix(.016,0,0,-.016,181.60562,19.356247)" d="M108 467H29V519H108V680H198V519H367V467H198V137C198 93 202 64 211 52 219 40 235 34 258 34 281 34 298 41 309 55 319 69 325 91 326 122H394C391 74 378 40 355 19 332-2 297-13 250-13 198-13 161-1 140 21 118 43 108 82 108 137V467Z"/>
<path transform="matrix(.016,0,0,-.016,188.03763,19.356247)" d=""/>
<path transform="matrix(.016,0,0,-.016,193.12563,19.356247)" d="M108 467H29V519H108V680H198V519H367V467H198V137C198 93 202 64 211 52 219 40 235 34 258 34 281 34 298 41 309 55 319 69 325 91 326 122H394C391 74 378 40 355 19 332-2 297-13 250-13 198-13 161-1 140 21 118 43 108 82 108 137V467Z"/>
<path transform="matrix(.016,0,0,-.016,199.55762,19.356247)" d="M398 163V273H282C237 273 204 263 182 244 160 224 150 195 150 156 150 120 161 91 183 70 205 48 235 38 273 38 310 38 340 49 363 72 386 95 398 125 398 163ZM488 324V52H568V0H398V56C378 32 355 14 329 3 303-7 272-13 238-13 180-13 134 2 100 32 66 62 50 104 50 156 50 209 69 250 108 280 146 310 201 325 272 325H398V361C398 400 386 430 362 452 338 474 304 485 261 485 225 485 197 476 176 460 154 444 141 420 136 388H90V493C121 506 151 516 181 523 210 529 239 533 267 533 339 533 393 515 431 479 469 443 488 392 488 324Z"/>
<path transform="matrix(.016,0,0,-.016,209.09363,19.356247)" d="M56 29V150H108C109 111 121 82 144 63 167 43 201 34 246 34 286 34 317 41 338 57 359 72 370 94 370 123 370 145 362 164 347 178 331 192 299 207 249 223L184 245C139 259 107 277 87 299 67 320 57 347 57 381 57 428 74 465 109 492 144 519 192 533 254 533 281 533 310 529 340 522 370 515 402 505 434 491V378H382C380 411 369 437 347 456 325 475 295 485 257 485 219 485 190 478 171 465 151 451 142 431 142 405 142 383 149 365 164 352 178 339 208 326 252 312L323 290C372 274 407 255 429 232 451 209 462 180 462 144 462 94 443 56 405 28 367 0 316-13 250-13 216-13 184-9 152-3 120 3 88 14 56 29Z"/>
<path transform="matrix(.016,0,0,-.016,217.30164,19.356247)" d="M286 0H34V52H115V708H29V760H205V265L424 467H349V519H584V467H495L341 324 538 52H613V0H357V52H431L276 265 205 199V52H286V0Z"/>
<path transform="matrix(.016,0,0,-.016,226.99762,19.356247)" d=""/>
<path transform="matrix(.016,0,0,-.016,232.08563,19.356247)" d="M542 250H155V246C155 176 168 123 194 87 220 51 259 34 311 34 350 34 382 44 408 65 433 85 451 116 461 157H533C519 100 492 57 454 29 415 1 364-13 302-13 226-13 165 11 119 61 73 111 50 177 50 260 50 342 72 408 118 458 163 508 222 533 296 533 374 533 435 508 477 460 519 412 540 342 542 250ZM436 302C434 362 421 408 397 439 373 469 340 485 296 485 254 485 222 469 198 438 174 407 160 362 155 302H436Z"/>
<path transform="matrix(.016,0,0,-.016,241.55762,19.356247)" d="M518 418C535 456 557 484 584 504 611 523 642 533 678 533 732 533 773 516 800 482 826 448 840 398 840 330V52H921V0H672V52H750V320C750 372 742 410 726 433 710 455 685 467 649 467 609 467 578 451 557 421 536 391 526 347 526 289V52H604V0H358V52H436V323C436 375 428 412 412 434 396 456 371 467 335 467 295 467 264 451 243 421 222 391 212 347 212 289V52H290V0H41V52H122V468H36V519H212V427C228 461 249 488 275 506 301 524 330 533 363 533 403 533 436 523 463 503 490 483 508 454 518 418Z"/>
<path transform="matrix(.016,0,0,-.016,256.72566,19.356247)" d="M115 52V708H29V760H205V438C222 470 244 494 272 510 299 525 333 533 373 533 437 533 489 507 529 457 569 407 590 341 590 260 590 178 569 112 529 62 489 12 437-13 373-13 333-13 299-5 272 9 244 24 222 48 205 81V0H29V52H115ZM205 234C205 171 217 123 241 91 265 58 299 42 345 42 391 42 425 60 449 97 473 133 485 188 485 260 485 332 473 386 449 422 425 458 391 477 345 477 299 477 265 460 241 427 217 394 205 347 205 285V234Z"/>
<path transform="matrix(.016,0,0,-.016,266.96565,19.356247)" d="M542 250H155V246C155 176 168 123 194 87 220 51 259 34 311 34 350 34 382 44 408 65 433 85 451 116 461 157H533C519 100 492 57 454 29 415 1 364-13 302-13 226-13 165 11 119 61 73 111 50 177 50 260 50 342 72 408 118 458 163 508 222 533 296 533 374 533 435 508 477 460 519 412 540 342 542 250ZM436 302C434 362 421 408 397 439 373 469 340 485 296 485 254 485 222 469 198 438 174 407 160 362 155 302H436Z"/>
<path transform="matrix(.016,0,0,-.016,276.43763,19.356247)" d="M525 52H611V0H435V81C417 48 395 24 368 9 340-5 307-13 267-13 203-13 150 12 110 62 70 112 50 178 50 260 50 341 70 407 110 457 150 507 203 533 267 533 307 533 340 525 368 510 395 494 417 470 435 438V708H350V760H525V52ZM435 234V285C435 347 423 394 399 427 375 460 340 477 295 477 249 477 214 458 190 422 166 386 155 332 155 260 155 188 166 133 190 97 214 60 249 42 295 42 340 42 375 58 399 91 423 123 435 171 435 234Z"/>
<path transform="matrix(.016,0,0,-.016,286.67765,19.356247)" d="M525 52H611V0H435V81C417 48 395 24 368 9 340-5 307-13 267-13 203-13 150 12 110 62 70 112 50 178 50 260 50 341 70 407 110 457 150 507 203 533 267 533 307 533 340 525 368 510 395 494 417 470 435 438V708H350V760H525V52ZM435 234V285C435 347 423 394 399 427 375 460 340 477 295 477 249 477 214 458 190 422 166 386 155 332 155 260 155 188 166 133 190 97 214 60 249 42 295 42 340 42 375 58 399 91 423 123 435 171 435 234Z"/>
<path transform="matrix(.016,0,0,-.016,296.91767,19.356247)" d="M97 680C97 695 102 708 113 719 124 730 137 736 153 736 167 736 180 730 191 719 202 708 208 695 208 680 208 664 202 651 192 641 181 630 168 625 153 625 137 625 124 630 113 641 102 651 97 664 97 680ZM212 52H297V0H36V52H122V467H36V519H212V52Z"/>
<path transform="matrix(.016,0,0,-.016,302.03767,19.356247)" d="M41 0V52H122V467H36V519H212V427C228 461 250 488 276 506 302 524 333 533 369 533 426 533 468 516 495 484 522 451 536 400 536 330V52H616V0H368V52H446V302C446 365 438 408 422 432 406 456 379 468 340 468 298 468 266 452 244 422 222 391 212 347 212 289V52H290V0H41Z"/>
<path transform="matrix(.016,0,0,-.016,312.34165,19.356247)" d="M525 467V11C525-63 504-120 463-160 422-200 364-221 288-221 254-221 221-218 190-212 158-206 128-196 100-184V-75H147C153-109 166-133 188-149 210-165 241-173 282-173 334-173 373-158 398-128 422-98 435-51 435 11V81C417 48 395 24 368 9 340-5 307-13 267-13 203-13 150 12 110 62 70 112 50 178 50 260 50 341 70 407 110 457 150 507 203 533 267 533 307 533 340 525 368 510 395 494 417 470 435 438V519H611V467H525ZM435 285C435 347 423 394 399 427 375 460 340 477 295 477 249 477 214 458 190 422 166 386 155 332 155 260 155 188 166 133 190 97 214 60 249 42 295 42 340 42 375 58 399 91 423 123 435 171 435 234V285Z"/>
<g>
<path transform="matrix(1,0,0,-1,0,218.83625)" d="M356.63438 156.13625H419.04063C420.37397 156.13625 421.04063 156.80292 421.04063 158.13625V186.48C421.04063 187.81334 420.37397 188.48 419.04063 188.48H356.63438C355.30107 188.48 354.63438 187.81334 354.63438 186.48V158.13625C354.63438 156.80292 355.30107 156.13625 356.63438 156.13625Z" fill="#ffffff" fill-opacity=".8"/>
<path transform="matrix(1,0,0,-1,0,218.83625)" stroke-width="1" stroke-linecap="butt" stroke-miterlimit="10" stroke-linejoin="miter" fill="none" stroke="#cccccc" stroke-opacity=".8" d="M356.63438 156.13625H419.04063C420.37397 156.13625 421.04063 156.80292 421.04063 158.13625V186.48C421.04063 187.81334 420.37397 188.48 419.04063 188.48H356.63438C355.30107 188.48 354.63438 187.81334 354.63438 186.48V158.13625C354.63438 156.80292 355.30107 156.13625 356.63438 156.13625Z"/>
</g>
<path transform="matrix(1,0,0,-1,0,218.83625)" stroke-width="1.5" stroke-linecap="square" stroke-linejoin="round" fill="none" stroke="#ffffff" d="M358.63438 180.38625H368.63438 378.63438"/>
<path transform="matrix(1,0,0,-1,0,218.83625)" d="M368.63438 175.38625C369.9604 175.38625 371.23228 175.91309 372.16993 176.85073 373.10755 177.78835 373.63438 179.06023 373.63438 180.38625 373.63438 181.71227 373.10755 182.98415 372.16993 183.92179 371.23228 184.85942 369.9604 185.38625 368.63438 185.38625 367.30836 185.38625 366.03648 184.85942 365.09886 183.92179 364.1612 182.98415 363.63438 181.71227 363.63438 180.38625 363.63438 179.06023 364.1612 177.78835 365.09886 176.85073 366.03648 175.91309 367.30836 175.38625 368.63438 175.38625Z" fill="#999999"/>
<path transform="matrix(1,0,0,-1,0,218.83625)" stroke-width="1" stroke-linecap="butt" stroke-linejoin="round" fill="none" stroke="#ffffff" d="M368.63438 175.38625C369.9604 175.38625 371.23228 175.91309 372.16993 176.85073 373.10755 177.78835 373.63438 179.06023 373.63438 180.38625 373.63438 181.71227 373.10755 182.98415 372.16993 183.92179 371.23228 184.85942 369.9604 185.38625 368.63438 185.38625 367.30836 185.38625 366.03648 184.85942 365.09886 183.92179 364.1612 182.98415 363.63438 181.71227 363.63438 180.38625 363.63438 179.06023 364.1612 177.78835 365.09886 176.85073 366.03648 175.91309 367.30836 175.38625 368.63438 175.38625Z"/>
<path transform="matrix(.010000001,0,0,-.010000001,386.63438,41.949998)" d="M98 729H245L431 233 618 729H765V0H669V640L481 140H382L194 640V0H98V729Z"/>
<path transform="matrix(.010000001,0,0,-.010000001,395.26438,41.949998)" d="M306 484C258 484 220 465 192 427 164 389 150 338 150 273 150 207 163 156 191 118 219 80 257 62 306 62 354 62 392 80 420 118 448 156 462 207 462 273 462 337 448 389 420 427 392 465 354 484 306 484ZM306 560C384 560 445 534 490 484 534 433 557 363 557 273 557 183 534 113 490 63 445 12 384-13 306-13 227-13 165 12 121 63 77 113 55 183 55 273 55 363 77 433 121 484 165 534 227 560 306 560Z"/>
<path transform="matrix(.010000001,0,0,-.010000001,401.38438,41.949998)" d="M454 464V760H544V0H454V82C435 49 411 25 382 10 353-5 319-13 279-13 213-13 159 13 117 65 75 117 55 187 55 273 55 359 75 428 117 481 159 533 213 560 279 560 319 560 353 552 382 536 411 520 435 496 454 464ZM148 273C148 207 161 155 188 117 215 79 252 61 300 61 348 61 385 79 413 117 440 155 454 207 454 273 454 339 440 390 413 428 385 466 348 485 300 485 252 485 215 466 188 428 161 390 148 339 148 273Z"/>
<path transform="matrix(.010000001,0,0,-.010000001,407.73439,41.949998)" d="M562 296V252H149C153 190 171 142 205 110 238 78 284 62 344 62 378 62 412 66 444 74 476 82 509 95 541 113V28C509 14 476 3 442-3 408-9 373-13 339-13 251-13 182 12 131 62 80 112 55 181 55 268 55 357 79 428 127 481 175 533 241 560 323 560 397 560 455 536 498 489 540 441 562 377 562 296ZM472 322C471 371 457 410 431 440 404 469 368 484 324 484 274 484 234 469 204 441 174 413 156 373 152 322H472Z"/>
<path transform="matrix(.010000001,0,0,-.010000001,413.88438,41.949998)" d="M94 760H184V0H94V760Z"/>
<path transform="matrix(1,0,0,-1,0,218.83625)" stroke-width="1.5" stroke-linecap="square" stroke-linejoin="round" fill="none" stroke="#ffffff" d="M358.63438 165.71437H368.63438 378.63438"/>
<path transform="matrix(1,0,0,-1,0,218.83625)" d="M368.63438 170.71437 363.63438 160.71437H373.63438Z" fill="#999999"/>
<path transform="matrix(1,0,0,-1,0,218.83625)" stroke-width="1" stroke-linecap="butt" stroke-miterlimit="10" stroke-linejoin="miter" fill="none" stroke="#ffffff" d="M368.63438 170.71437 363.63438 160.71437H373.63438Z"/>
<path transform="matrix(.010000001,0,0,-.010000001,386.63438,56.621873)" d="M394 662C322 662 265 635 223 582 181 528 160 456 160 364 160 272 181 199 223 146 265 92 322 66 394 66 465 66 522 92 564 146 606 199 627 272 627 364 627 456 606 528 564 582 522 635 465 662 394 662ZM532 13 662-128H543L435-11C424-11 416-12 410-12 404-12 399-13 394-13 291-13 209 21 148 89 86 157 56 248 56 364 56 479 86 571 148 639 209 707 291 742 394 742 496 742 577 707 639 639 700 571 731 479 731 364 731 279 714 206 680 146 646 86 596 41 532 13Z"/>
<path transform="matrix(.010000001,0,0,-.010000001,394.50437,56.621873)" d="M85 216V547H175V219C175 167 185 129 205 103 225 77 255 64 296 64 344 64 383 79 411 110 439 141 453 183 453 237V547H543V0H453V84C431 50 405 26 377 10 348-5 315-13 277-13 214-13 166 6 134 45 101 83 85 140 85 216ZM311 560V560Z"/>
<path transform="matrix(.010000001,0,0,-.010000001,400.84437,56.621873)" d="M562 296V252H149C153 190 171 142 205 110 238 78 284 62 344 62 378 62 412 66 444 74 476 82 509 95 541 113V28C509 14 476 3 442-3 408-9 373-13 339-13 251-13 182 12 131 62 80 112 55 181 55 268 55 357 79 428 127 481 175 533 241 560 323 560 397 560 455 536 498 489 540 441 562 377 562 296ZM472 322C471 371 457 410 431 440 404 469 368 484 324 484 274 484 234 469 204 441 174 413 156 373 152 322H472Z"/>
<path transform="matrix(.010000001,0,0,-.010000001,406.9944,56.621873)" d="M411 463C401 469 390 473 378 476 366 478 353 480 339 480 288 480 249 463 222 430 194 397 181 350 181 288V0H91V547H181V462C199 495 224 520 254 536 284 552 321 560 365 560 371 560 378 559 386 559 393 558 401 557 411 555V463Z"/>
<path transform="matrix(.010000001,0,0,-.010000001,411.10438,56.621873)" d="M322-50C296-114 271-157 247-177 223-197 191-207 151-207H79V-132H132C156-132 175-126 189-114 203-102 218-75 235-31L251 9 30 547H125L296 119 467 547H562L322-50Z"/>
<g>
<path transform="matrix(1,0,0,-1,0,218.83625)" d="M9.2 7.2H432.48127C433.81459 7.2 434.48127 7.866667 434.48127 9.2V37.54375C434.48127 38.877084 433.81459 39.54375 432.48127 39.54375H9.2C7.866667 39.54375 7.2 38.877084 7.2 37.54375V9.2C7.2 7.866667 7.866667 7.2 9.2 7.2Z" fill="#ffffff" fill-opacity=".8"/>
<path transform="matrix(1,0,0,-1,0,218.83625)" stroke-width="1" stroke-linecap="butt" stroke-miterlimit="10" stroke-linejoin="miter" fill="none" stroke="#cccccc" stroke-opacity=".8" d="M9.2 7.2H432.48127C433.81459 7.2 434.48127 7.866667 434.48127 9.2V37.54375C434.48127 38.877084 433.81459 39.54375 432.48127 39.54375H9.2C7.866667 39.54375 7.2 38.877084 7.2 37.54375V9.2C7.2 7.866667 7.866667 7.2 9.2 7.2Z"/>
</g>
<path transform="matrix(.010000001,0,0,-.010000001,198.81719,190.88625)" d="M197 648V81H316C416 81 490 103 537 149 583 195 607 267 607 365 607 463 583 534 537 580 490 625 416 648 316 648H197ZM98 729H301C442 729 546 699 612 641 678 582 711 490 711 365 711 239 677 147 611 88 545 29 441 0 301 0H98V729Z"/>
<path transform="matrix(.010000001,0,0,-.010000001,206.51718,190.88625)" d="M306 484C258 484 220 465 192 427 164 389 150 338 150 273 150 207 163 156 191 118 219 80 257 62 306 62 354 62 392 80 420 118 448 156 462 207 462 273 462 337 448 389 420 427 392 465 354 484 306 484ZM306 560C384 560 445 534 490 484 534 433 557 363 557 273 557 183 534 113 490 63 445 12 384-13 306-13 227-13 165 12 121 63 77 113 55 183 55 273 55 363 77 433 121 484 165 534 227 560 306 560Z"/>
<path transform="matrix(.010000001,0,0,-.010000001,212.63719,190.88625)" d="M520 442C542 482 569 511 600 531 631 550 668 560 711 560 767 560 811 540 842 500 873 460 889 403 889 330V0H799V327C799 379 789 418 771 444 752 469 724 482 686 482 639 482 602 466 575 435 548 404 535 362 535 309V0H445V327C445 379 435 418 417 444 398 469 369 482 331 482 285 482 248 466 221 435 194 404 181 362 181 309V0H91V547H181V462C201 495 226 520 255 536 283 552 317 560 357 560 397 560 430 550 458 530 486 510 506 480 520 442Z"/>
<path transform="matrix(.010000001,0,0,-.010000001,222.37718,190.88625)" d="M343 275C270 275 220 266 192 250 164 233 150 205 150 165 150 133 160 107 181 89 202 70 231 61 267 61 317 61 357 78 387 114 417 149 432 196 432 255V275H343ZM522 312V0H432V83C411 49 385 25 355 10 325-5 287-13 243-13 187-13 142 2 109 33 76 64 60 106 60 159 60 220 80 266 122 298 163 329 224 345 306 345H432V354C432 395 418 427 391 450 364 472 326 484 277 484 245 484 215 480 185 472 155 464 127 453 100 439V522C132 534 164 544 195 550 226 556 256 560 286 560 365 560 424 539 463 498 502 457 522 395 522 312Z"/>
<path transform="matrix(.010000001,0,0,-.010000001,228.50719,190.88625)" d="M94 547H184V0H94V547ZM94 760H184V646H94V760Z"/>
<path transform="matrix(.010000001,0,0,-.010000001,231.28719,190.88625)" d="M549 330V0H459V327C459 379 448 417 428 443 408 469 378 482 338 482 289 482 251 466 223 435 195 404 181 362 181 309V0H91V547H181V462C202 494 227 519 257 535 286 551 320 560 358 560 420 560 468 540 500 501 532 462 549 405 549 330Z"/>
<path transform="matrix(.010000001,0,0,-.010000001,237.62718,190.88625)" d="M443 531V446C417 458 391 468 364 475 336 481 308 485 279 485 234 485 200 478 178 464 156 450 145 430 145 403 145 382 153 366 169 354 185 342 217 330 265 320L296 313C360 299 405 279 432 255 458 230 472 195 472 151 472 100 452 60 412 31 372 1 316-13 246-13 216-13 186-10 154-5 122 0 89 8 54 20V113C87 95 120 82 152 74 184 65 216 61 248 61 290 61 323 68 346 82 368 96 380 117 380 144 380 168 371 187 355 200 339 213 303 226 247 238L216 245C160 257 119 275 95 299 70 323 58 356 58 399 58 450 76 490 112 518 148 546 200 560 268 560 301 560 332 557 362 552 391 547 418 540 443 531Z"/>
<path transform="matrix(1,0,0,-1,0,218.83625)" stroke-width="1.5" stroke-linecap="square" stroke-linejoin="round" fill="none" stroke="#ffffff" d="M11.2 16.778126H21.2 31.2"/>
<path transform="matrix(1,0,0,-1,0,218.83625)" d="M21.2 11.778125C22.526015 11.778125 23.7979 12.304957 24.735535 13.242591 25.673169 14.180226 26.2 15.45211 26.2 16.778126 26.2 18.104142 25.673169 19.376025 24.735535 20.31366 23.7979 21.251294 22.526015 21.778126 21.2 21.778126 19.873984 21.778126 18.6021 21.251294 17.664467 20.31366 16.726832 19.376025 16.2 18.104142 16.2 16.778126 16.2 15.45211 16.726832 14.180226 17.664467 13.242591 18.6021 12.304957 19.873984 11.778125 21.2 11.778125Z" fill="#648fff"/>
<path transform="matrix(1,0,0,-1,0,218.83625)" stroke-width="1" stroke-linecap="butt" stroke-linejoin="round" fill="none" stroke="#ffffff" d="M21.2 11.778125C22.526015 11.778125 23.7979 12.304957 24.735535 13.242591 25.673169 14.180226 26.2 15.45211 26.2 16.778126 26.2 18.104142 25.673169 19.376025 24.735535 20.31366 23.7979 21.251294 22.526015 21.778126 21.2 21.778126 19.873984 21.778126 18.6021 21.251294 17.664467 20.31366 16.726832 19.376025 16.2 18.104142 16.2 16.778126 16.2 15.45211 16.726832 14.180226 17.664467 13.242591 18.6021 12.304957 19.873984 11.778125 21.2 11.778125Z"/>
<path transform="matrix(.010000001,0,0,-.010000001,39.2,205.55812)" d="M98 729H197V83H552V0H98V729Z"/>
<path transform="matrix(.010000001,0,0,-.010000001,44.598127,205.55812)" d="M562 296V252H149C153 190 171 142 205 110 238 78 284 62 344 62 378 62 412 66 444 74 476 82 509 95 541 113V28C509 14 476 3 442-3 408-9 373-13 339-13 251-13 182 12 131 62 80 112 55 181 55 268 55 357 79 428 127 481 175 533 241 560 323 560 397 560 455 536 498 489 540 441 562 377 562 296ZM472 322C471 371 457 410 431 440 404 469 368 484 324 484 274 484 234 469 204 441 174 413 156 373 152 322H472Z"/>
<path transform="matrix(.010000001,0,0,-.010000001,50.748128,205.55812)" d="M454 280C454 344 440 395 414 431 387 467 349 485 301 485 253 485 215 467 188 431 161 395 148 344 148 280 148 215 161 165 188 129 215 93 253 75 301 75 349 75 387 93 414 129 440 165 454 215 454 280ZM544 68C544-24 523-93 482-139 440-184 377-207 292-207 260-207 231-204 203-200 175-195 147-188 121-178V-91C147-105 173-115 199-122 225-129 251-133 278-133 336-133 380-117 410-87 439-56 454-10 454 52V96C435 64 411 40 382 24 353 8 319 0 279 0 211 0 157 25 116 76 75 127 55 195 55 280 55 364 75 432 116 483 157 534 211 560 279 560 319 560 353 552 382 536 411 520 435 496 454 464V547H544V68Z"/>
<path transform="matrix(.010000001,0,0,-.010000001,57.09813,205.55812)" d="M343 275C270 275 220 266 192 250 164 233 150 205 150 165 150 133 160 107 181 89 202 70 231 61 267 61 317 61 357 78 387 114 417 149 432 196 432 255V275H343ZM522 312V0H432V83C411 49 385 25 355 10 325-5 287-13 243-13 187-13 142 2 109 33 76 64 60 106 60 159 60 220 80 266 122 298 163 329 224 345 306 345H432V354C432 395 418 427 391 450 364 472 326 484 277 484 245 484 215 480 185 472 155 464 127 453 100 439V522C132 534 164 544 195 550 226 556 256 560 286 560 365 560 424 539 463 498 502 457 522 395 522 312Z"/>
<path transform="matrix(.010000001,0,0,-.010000001,63.228128,205.55812)" d="M94 760H184V0H94V760Z"/>
<path transform="matrix(1,0,0,-1,0,218.83625)" stroke-width="1.5" stroke-linecap="square" stroke-linejoin="round" fill="none" stroke="#ffffff" d="M86.05937 16.778126H96.05937 106.05937"/>
<path transform="matrix(1,0,0,-1,0,218.83625)" d="M96.05937 11.778125C97.38539 11.778125 98.65727 12.304957 99.59491 13.242591 100.53254 14.180226 101.05937 15.45211 101.05937 16.778126 101.05937 18.104142 100.53254 19.376025 99.59491 20.31366 98.65727 21.251294 97.38539 21.778126 96.05937 21.778126 94.73336 21.778126 93.46148 21.251294 92.52384 20.31366 91.586208 19.376025 91.05937 18.104142 91.05937 16.778126 91.05937 15.45211 91.586208 14.180226 92.52384 13.242591 93.46148 12.304957 94.73336 11.778125 96.05937 11.778125Z" fill="#ffb000"/>
<path transform="matrix(1,0,0,-1,0,218.83625)" stroke-width="1" stroke-linecap="butt" stroke-linejoin="round" fill="none" stroke="#ffffff" d="M96.05937 11.778125C97.38539 11.778125 98.65727 12.304957 99.59491 13.242591 100.53254 14.180226 101.05937 15.45211 101.05937 16.778126 101.05937 18.104142 100.53254 19.376025 99.59491 20.31366 98.65727 21.251294 97.38539 21.778126 96.05937 21.778126 94.73336 21.778126 93.46148 21.251294 92.52384 20.31366 91.586208 19.376025 91.05937 18.104142 91.05937 16.778126 91.05937 15.45211 91.586208 14.180226 92.52384 13.242591 93.46148 12.304957 94.73336 11.778125 96.05937 11.778125Z"/>
<path transform="matrix(.010000001,0,0,-.010000001,114.05937,205.55812)" d="M98 729H245L431 233 618 729H765V0H669V640L481 140H382L194 640V0H98V729Z"/>
<path transform="matrix(.010000001,0,0,-.010000001,122.68937,205.55812)" d="M343 275C270 275 220 266 192 250 164 233 150 205 150 165 150 133 160 107 181 89 202 70 231 61 267 61 317 61 357 78 387 114 417 149 432 196 432 255V275H343ZM522 312V0H432V83C411 49 385 25 355 10 325-5 287-13 243-13 187-13 142 2 109 33 76 64 60 106 60 159 60 220 80 266 122 298 163 329 224 345 306 345H432V354C432 395 418 427 391 450 364 472 326 484 277 484 245 484 215 480 185 472 155 464 127 453 100 439V522C132 534 164 544 195 550 226 556 256 560 286 560 365 560 424 539 463 498 502 457 522 395 522 312Z"/>
<path transform="matrix(.010000001,0,0,-.010000001,128.81937,205.55812)" d="M183 702V547H368V477H183V180C183 135 189 106 201 94 213 81 238 75 276 75H368V0H276C206 0 158 13 132 39 106 65 93 112 93 180V477H27V547H93V702H183Z"/>
<path transform="matrix(.010000001,0,0,-.010000001,132.73938,205.55812)" d="M549 330V0H459V327C459 379 448 417 428 443 408 469 378 482 338 482 289 482 251 466 223 435 195 404 181 362 181 309V0H91V760H181V462C202 494 227 519 257 535 286 551 320 560 358 560 420 560 468 540 500 501 532 462 549 405 549 330Z"/>
<path transform="matrix(1,0,0,-1,0,218.83625)" stroke-width="1.5" stroke-linecap="square" stroke-linejoin="round" fill="none" stroke="#ffffff" d="M159.075 16.778126H169.075 179.075"/>
<path transform="matrix(1,0,0,-1,0,218.83625)" d="M169.075 11.778125C170.40102 11.778125 171.6729 12.304957 172.61054 13.242591 173.54817 14.180226 174.075 15.45211 174.075 16.778126 174.075 18.104142 173.54817 19.376025 172.61054 20.31366 171.6729 21.251294 170.40102 21.778126 169.075 21.778126 167.74898 21.778126 166.4771 21.251294 165.53946 20.31366 164.60184 19.376025 164.075 18.104142 164.075 16.778126 164.075 15.45211 164.60184 14.180226 165.53946 13.242591 166.4771 12.304957 167.74898 11.778125 169.075 11.778125Z" fill="#dc267f"/>
<path transform="matrix(1,0,0,-1,0,218.83625)" stroke-width="1" stroke-linecap="butt" stroke-linejoin="round" fill="none" stroke="#ffffff" d="M169.075 11.778125C170.40102 11.778125 171.6729 12.304957 172.61054 13.242591 173.54817 14.180226 174.075 15.45211 174.075 16.778126 174.075 18.104142 173.54817 19.376025 172.61054 20.31366 171.6729 21.251294 170.40102 21.778126 169.075 21.778126 167.74898 21.778126 166.4771 21.251294 165.53946 20.31366 164.60184 19.376025 164.075 18.104142 164.075 16.778126 164.075 15.45211 164.60184 14.180226 165.53946 13.242591 166.4771 12.304957 167.74898 11.778125 169.075 11.778125Z"/>
<path transform="matrix(.010000001,0,0,-.010000001,187.075,205.55812)" d="M98 729H245L431 233 618 729H765V0H669V640L481 140H382L194 640V0H98V729Z"/>
<path transform="matrix(.010000001,0,0,-.010000001,195.705,205.55812)" d="M562 296V252H149C153 190 171 142 205 110 238 78 284 62 344 62 378 62 412 66 444 74 476 82 509 95 541 113V28C509 14 476 3 442-3 408-9 373-13 339-13 251-13 182 12 131 62 80 112 55 181 55 268 55 357 79 428 127 481 175 533 241 560 323 560 397 560 455 536 498 489 540 441 562 377 562 296ZM472 322C471 371 457 410 431 440 404 469 368 484 324 484 274 484 234 469 204 441 174 413 156 373 152 322H472Z"/>
<path transform="matrix(.010000001,0,0,-.010000001,201.855,205.55812)" d="M454 464V760H544V0H454V82C435 49 411 25 382 10 353-5 319-13 279-13 213-13 159 13 117 65 75 117 55 187 55 273 55 359 75 428 117 481 159 533 213 560 279 560 319 560 353 552 382 536 411 520 435 496 454 464ZM148 273C148 207 161 155 188 117 215 79 252 61 300 61 348 61 385 79 413 117 440 155 454 207 454 273 454 339 440 390 413 428 385 466 348 485 300 485 252 485 215 466 188 428 161 390 148 339 148 273Z"/>
<path transform="matrix(.010000001,0,0,-.010000001,208.205,205.55812)" d="M94 547H184V0H94V547ZM94 760H184V646H94V760Z"/>
<path transform="matrix(.010000001,0,0,-.010000001,210.985,205.55812)" d="M488 526V442C462 456 437 466 411 473 385 480 360 484 334 484 276 484 230 465 198 428 166 391 150 339 150 273 150 206 166 154 198 117 230 80 276 62 334 62 360 62 385 65 411 72 437 79 462 90 488 104V21C462 9 436 0 410-5 383-10 354-13 324-13 242-13 176 12 128 64 79 115 55 185 55 273 55 362 79 432 128 483 177 534 244 560 330 560 358 560 385 557 411 551 437 545 463 537 488 526Z"/>
<path transform="matrix(.010000001,0,0,-.010000001,216.485,205.55812)" d="M343 275C270 275 220 266 192 250 164 233 150 205 150 165 150 133 160 107 181 89 202 70 231 61 267 61 317 61 357 78 387 114 417 149 432 196 432 255V275H343ZM522 312V0H432V83C411 49 385 25 355 10 325-5 287-13 243-13 187-13 142 2 109 33 76 64 60 106 60 159 60 220 80 266 122 298 163 329 224 345 306 345H432V354C432 395 418 427 391 450 364 472 326 484 277 484 245 484 215 480 185 472 155 464 127 453 100 439V522C132 534 164 544 195 550 226 556 256 560 286 560 365 560 424 539 463 498 502 457 522 395 522 312Z"/>
<path transform="matrix(.010000001,0,0,-.010000001,222.61499,205.55812)" d="M94 760H184V0H94V760Z"/>
<path transform="matrix(1,0,0,-1,0,218.83625)" stroke-width="1.5" stroke-linecap="square" stroke-linejoin="round" fill="none" stroke="#ffffff" d="M245.3875 16.778126H255.3875 265.3875"/>
<path transform="matrix(1,0,0,-1,0,218.83625)" d="M255.3875 11.778125C256.7135 11.778125 257.9854 12.304957 258.92304 13.242591 259.86067 14.180226 260.3875 15.45211 260.3875 16.778126 260.3875 18.104142 259.86067 19.376025 258.92304 20.31366 257.9854 21.251294 256.7135 21.778126 255.3875 21.778126 254.06148 21.778126 252.7896 21.251294 251.85196 20.31366 250.91434 19.376025 250.3875 18.104142 250.3875 16.778126 250.3875 15.45211 250.91434 14.180226 251.85196 13.242591 252.7896 12.304957 254.06148 11.778125 255.3875 11.778125Z" fill="#785ef0"/>
<path transform="matrix(1,0,0,-1,0,218.83625)" stroke-width="1" stroke-linecap="butt" stroke-linejoin="round" fill="none" stroke="#ffffff" d="M255.3875 11.778125C256.7135 11.778125 257.9854 12.304957 258.92304 13.242591 259.86067 14.180226 260.3875 15.45211 260.3875 16.778126 260.3875 18.104142 259.86067 19.376025 258.92304 20.31366 257.9854 21.251294 256.7135 21.778126 255.3875 21.778126 254.06148 21.778126 252.7896 21.251294 251.85196 20.31366 250.91434 19.376025 250.3875 18.104142 250.3875 16.778126 250.3875 15.45211 250.91434 14.180226 251.85196 13.242591 252.7896 12.304957 254.06148 11.778125 255.3875 11.778125Z"/>
<path transform="matrix(.010000001,0,0,-.010000001,273.3875,205.55812)" d="M644 673V569C610 599 575 622 537 638 499 653 460 661 418 661 334 661 270 635 226 584 182 533 160 460 160 364 160 268 182 194 226 143 270 92 334 67 418 67 460 67 499 74 537 90 575 105 610 128 644 159V56C609 32 572 15 534 4 496-7 455-13 412-13 302-13 215 20 151 87 87 154 56 246 56 364 56 481 87 573 151 641 215 708 302 742 412 742 456 742 497 736 535 725 573 713 610 696 644 673Z"/>
<path transform="matrix(.010000001,0,0,-.010000001,280.36753,205.55812)" d="M306 484C258 484 220 465 192 427 164 389 150 338 150 273 150 207 163 156 191 118 219 80 257 62 306 62 354 62 392 80 420 118 448 156 462 207 462 273 462 337 448 389 420 427 392 465 354 484 306 484ZM306 560C384 560 445 534 490 484 534 433 557 363 557 273 557 183 534 113 490 63 445 12 384-13 306-13 227-13 165 12 121 63 77 113 55 183 55 273 55 363 77 433 121 484 165 534 227 560 306 560Z"/>
<path transform="matrix(.010000001,0,0,-.010000001,286.48753,205.55812)" d="M520 442C542 482 569 511 600 531 631 550 668 560 711 560 767 560 811 540 842 500 873 460 889 403 889 330V0H799V327C799 379 789 418 771 444 752 469 724 482 686 482 639 482 602 466 575 435 548 404 535 362 535 309V0H445V327C445 379 435 418 417 444 398 469 369 482 331 482 285 482 248 466 221 435 194 404 181 362 181 309V0H91V547H181V462C201 495 226 520 255 536 283 552 317 560 357 560 397 560 430 550 458 530 486 510 506 480 520 442Z"/>
<path transform="matrix(.010000001,0,0,-.010000001,296.2275,205.55812)" d="M520 442C542 482 569 511 600 531 631 550 668 560 711 560 767 560 811 540 842 500 873 460 889 403 889 330V0H799V327C799 379 789 418 771 444 752 469 724 482 686 482 639 482 602 466 575 435 548 404 535 362 535 309V0H445V327C445 379 435 418 417 444 398 469 369 482 331 482 285 482 248 466 221 435 194 404 181 362 181 309V0H91V547H181V462C201 495 226 520 255 536 283 552 317 560 357 560 397 560 430 550 458 530 486 510 506 480 520 442Z"/>
<path transform="matrix(.010000001,0,0,-.010000001,305.96754,205.55812)" d="M306 484C258 484 220 465 192 427 164 389 150 338 150 273 150 207 163 156 191 118 219 80 257 62 306 62 354 62 392 80 420 118 448 156 462 207 462 273 462 337 448 389 420 427 392 465 354 484 306 484ZM306 560C384 560 445 534 490 484 534 433 557 363 557 273 557 183 534 113 490 63 445 12 384-13 306-13 227-13 165 12 121 63 77 113 55 183 55 273 55 363 77 433 121 484 165 534 227 560 306 560Z"/>
<path transform="matrix(.010000001,0,0,-.010000001,312.08753,205.55812)" d="M549 330V0H459V327C459 379 448 417 428 443 408 469 378 482 338 482 289 482 251 466 223 435 195 404 181 362 181 309V0H91V547H181V462C202 494 227 519 257 535 286 551 320 560 358 560 420 560 468 540 500 501 532 462 549 405 549 330Z"/>
<path transform="matrix(.010000001,0,0,-.010000001,318.42753,205.55812)" d="M443 531V446C417 458 391 468 364 475 336 481 308 485 279 485 234 485 200 478 178 464 156 450 145 430 145 403 145 382 153 366 169 354 185 342 217 330 265 320L296 313C360 299 405 279 432 255 458 230 472 195 472 151 472 100 452 60 412 31 372 1 316-13 246-13 216-13 186-10 154-5 122 0 89 8 54 20V113C87 95 120 82 152 74 184 65 216 61 248 61 290 61 323 68 346 82 368 96 380 117 380 144 380 168 371 187 355 200 339 213 303 226 247 238L216 245C160 257 119 275 95 299 70 323 58 356 58 399 58 450 76 490 112 518 148 546 200 560 268 560 301 560 332 557 362 552 391 547 418 540 443 531Z"/>
<path transform="matrix(.010000001,0,0,-.010000001,323.6375,205.55812)" d="M562 296V252H149C153 190 171 142 205 110 238 78 284 62 344 62 378 62 412 66 444 74 476 82 509 95 541 113V28C509 14 476 3 442-3 408-9 373-13 339-13 251-13 182 12 131 62 80 112 55 181 55 268 55 357 79 428 127 481 175 533 241 560 323 560 397 560 455 536 498 489 540 441 562 377 562 296ZM472 322C471 371 457 410 431 440 404 469 368 484 324 484 274 484 234 469 204 441 174 413 156 373 152 322H472Z"/>
<path transform="matrix(.010000001,0,0,-.010000001,329.7875,205.55812)" d="M549 330V0H459V327C459 379 448 417 428 443 408 469 378 482 338 482 289 482 251 466 223 435 195 404 181 362 181 309V0H91V547H181V462C202 494 227 519 257 535 286 551 320 560 358 560 420 560 468 540 500 501 532 462 549 405 549 330Z"/>
<path transform="matrix(.010000001,0,0,-.010000001,336.1275,205.55812)" d="M443 531V446C417 458 391 468 364 475 336 481 308 485 279 485 234 485 200 478 178 464 156 450 145 430 145 403 145 382 153 366 169 354 185 342 217 330 265 320L296 313C360 299 405 279 432 255 458 230 472 195 472 151 472 100 452 60 412 31 372 1 316-13 246-13 216-13 186-10 154-5 122 0 89 8 54 20V113C87 95 120 82 152 74 184 65 216 61 248 61 290 61 323 68 346 82 368 96 380 117 380 144 380 168 371 187 355 200 339 213 303 226 247 238L216 245C160 257 119 275 95 299 70 323 58 356 58 399 58 450 76 490 112 518 148 546 200 560 268 560 301 560 332 557 362 552 391 547 418 540 443 531Z"/>
<path transform="matrix(.010000001,0,0,-.010000001,341.33753,205.55812)" d="M562 296V252H149C153 190 171 142 205 110 238 78 284 62 344 62 378 62 412 66 444 74 476 82 509 95 541 113V28C509 14 476 3 442-3 408-9 373-13 339-13 251-13 182 12 131 62 80 112 55 181 55 268 55 357 79 428 127 481 175 533 241 560 323 560 397 560 455 536 498 489 540 441 562 377 562 296ZM472 322C471 371 457 410 431 440 404 469 368 484 324 484 274 484 234 469 204 441 174 413 156 373 152 322H472Z"/>
<path transform="matrix(1,0,0,-1,0,218.83625)" stroke-width="1.5" stroke-linecap="square" stroke-linejoin="round" fill="none" stroke="#ffffff" d="M367.5594 16.778126H377.5594 387.5594"/>
<path transform="matrix(1,0,0,-1,0,218.83625)" d="M377.5594 11.778125C378.88539 11.778125 380.1573 12.304957 381.0949 13.242591 382.03254 14.180226 382.5594 15.45211 382.5594 16.778126 382.5594 18.104142 382.03254 19.376025 381.0949 20.31366 380.1573 21.251294 378.88539 21.778126 377.5594 21.778126 376.23338 21.778126 374.9615 21.251294 374.02384 20.31366 373.0862 19.376025 372.5594 18.104142 372.5594 16.778126 372.5594 15.45211 373.0862 14.180226 374.02384 13.242591 374.9615 12.304957 376.23338 11.778125 377.5594 11.778125Z" fill="#fe6100"/>
<path transform="matrix(1,0,0,-1,0,218.83625)" stroke-width="1" stroke-linecap="butt" stroke-linejoin="round" fill="none" stroke="#ffffff" d="M377.5594 11.778125C378.88539 11.778125 380.1573 12.304957 381.0949 13.242591 382.03254 14.180226 382.5594 15.45211 382.5594 16.778126 382.5594 18.104142 382.03254 19.376025 381.0949 20.31366 380.1573 21.251294 378.88539 21.778126 377.5594 21.778126 376.23338 21.778126 374.9615 21.251294 374.02384 20.31366 373.0862 19.376025 372.5594 18.104142 372.5594 16.778126 372.5594 15.45211 373.0862 14.180226 374.02384 13.242591 374.9615 12.304957 376.23338 11.778125 377.5594 11.778125Z"/>
<path transform="matrix(.010000001,0,0,-.010000001,395.5594,205.55812)" d="M644 673V569C610 599 575 622 537 638 499 653 460 661 418 661 334 661 270 635 226 584 182 533 160 460 160 364 160 268 182 194 226 143 270 92 334 67 418 67 460 67 499 74 537 90 575 105 610 128 644 159V56C609 32 572 15 534 4 496-7 455-13 412-13 302-13 215 20 151 87 87 154 56 246 56 364 56 481 87 573 151 641 215 708 302 742 412 742 456 742 497 736 535 725 573 713 610 696 644 673Z"/>
<path transform="matrix(.010000001,0,0,-.010000001,402.5394,205.55812)" d="M306 484C258 484 220 465 192 427 164 389 150 338 150 273 150 207 163 156 191 118 219 80 257 62 306 62 354 62 392 80 420 118 448 156 462 207 462 273 462 337 448 389 420 427 392 465 354 484 306 484ZM306 560C384 560 445 534 490 484 534 433 557 363 557 273 557 183 534 113 490 63 445 12 384-13 306-13 227-13 165 12 121 63 77 113 55 183 55 273 55 363 77 433 121 484 165 534 227 560 306 560Z"/>
<path transform="matrix(.010000001,0,0,-.010000001,408.6594,205.55812)" d="M454 464V760H544V0H454V82C435 49 411 25 382 10 353-5 319-13 279-13 213-13 159 13 117 65 75 117 55 187 55 273 55 359 75 428 117 481 159 533 213 560 279 560 319 560 353 552 382 536 411 520 435 496 454 464ZM148 273C148 207 161 155 188 117 215 79 252 61 300 61 348 61 385 79 413 117 440 155 454 207 454 273 454 339 440 390 413 428 385 466 348 485 300 485 252 485 215 466 188 428 161 390 148 339 148 273Z"/>
<path transform="matrix(.010000001,0,0,-.010000001,415.0094,205.55812)" d="M94 547H184V0H94V547ZM94 760H184V646H94V760Z"/>
<path transform="matrix(.010000001,0,0,-.010000001,417.7894,205.55812)" d="M549 330V0H459V327C459 379 448 417 428 443 408 469 378 482 338 482 289 482 251 466 223 435 195 404 181 362 181 309V0H91V547H181V462C202 494 227 519 257 535 286 551 320 560 358 560 420 560 468 540 500 501 532 462 549 405 549 330Z"/>
<path transform="matrix(.010000001,0,0,-.010000001,424.1294,205.55812)" d="M454 280C454 344 440 395 414 431 387 467 349 485 301 485 253 485 215 467 188 431 161 395 148 344 148 280 148 215 161 165 188 129 215 93 253 75 301 75 349 75 387 93 414 129 440 165 454 215 454 280ZM544 68C544-24 523-93 482-139 440-184 377-207 292-207 260-207 231-204 203-200 175-195 147-188 121-178V-91C147-105 173-115 199-122 225-129 251-133 278-133 336-133 380-117 410-87 439-56 454-10 454 52V96C435 64 411 40 382 24 353 8 319 0 279 0 211 0 157 25 116 76 75 127 55 195 55 280 55 364 75 432 116 483 157 534 211 560 279 560 319 560 353 552 382 536 411 520 435 496 454 464V547H544V68Z"/>
</svg>
